<?xml version="1.0" encoding="UTF-8" standalone="no"?>
<!DOCTYPE svg PUBLIC "-//W3C//DTD SVG 1.1//EN" "http://www.w3.org/Graphics/SVG/1.1/DTD/svg11.dtd">
<svg width="100%" height="100%" viewBox="0 0 663 418" version="1.1" xmlns="http://www.w3.org/2000/svg" xmlns:xlink="http://www.w3.org/1999/xlink" xml:space="preserve" xmlns:serif="http://www.serif.com/" style="fill-rule:evenodd;clip-rule:evenodd;stroke-linecap:round;stroke-miterlimit:1.5;">
    <g transform="matrix(1,0,0,1,-482,-2560)">
        <g transform="matrix(1.18457,0,0,1.18457,-574.993,-686.104)">
            <g transform="matrix(0.640874,0.417473,-0.693906,0.382868,1841.92,1993.37)">
                <rect x="506.005" y="1518.28" width="43.278" height="284.256" style="fill:none;stroke:rgb(64,124,191);stroke-width:3.24px;"/>
            </g>
            <g transform="matrix(0.999812,0.0194058,-0.0194058,0.999812,632.19,1255.82)">
                <path d="M510.077,1516.51L538.158,1534.03L538.158,1538.01L343.061,1650.65L314.98,1633.12L314.98,1629.15L510.077,1516.51Z" style="fill:rgb(100,81,64);stroke:rgb(64,124,191);stroke-width:1.84px;"/>
            </g>
            <g transform="matrix(0.640874,0.417473,-0.693906,0.382868,1842,1989.39)">
                <rect x="506.005" y="1518.28" width="43.278" height="284.256" style="fill:white;stroke:rgb(64,124,191);stroke-width:3.24px;"/>
            </g>
            <g transform="matrix(0.999812,0.0194058,-0.0194058,0.999812,632.19,1255.82)">
                <path d="M343.061,1646.67L343.061,1650.65" style="fill:none;stroke:rgb(64,124,191);stroke-width:1.84px;"/>
            </g>
            <g transform="matrix(1,0,0,1,601.379,1263.8)">
                <path d="M689.331,1601.48C689.331,1601.48 604.396,1554.14 590.213,1546.24C588.967,1545.54 587.455,1545.52 586.193,1546.19C572.513,1553.38 493.231,1595.1 464.19,1610.38C457.637,1613.83 453.534,1620.62 453.534,1628.03L453.534,1683.54L524.812,1722.49" style="fill:none;stroke:rgb(64,124,191);stroke-width:1.84px;"/>
            </g>
            <g transform="matrix(1,0,0,1,601.379,1263.8)">
                <path d="M549.676,1729.86C549.676,1729.86 549.968,1698.42 549.676,1686.02C549.471,1677.32 552.993,1670.06 561.343,1665.57C586.134,1652.24 652.833,1615.33 674.063,1603.93C682.662,1599.32 693.83,1600.04 693.895,1610.14C693.965,1621.08 693.659,1664.47 693.659,1664.47" style="fill:none;stroke:rgb(64,124,191);stroke-width:1.84px;"/>
            </g>
            <g transform="matrix(-1,1.22465e-16,-1.22465e-16,-1,1844.95,4671.23)">
                <path d="M582.045,1654.31C612.486,1637.67 657.355,1612.9 674.063,1603.93C682.662,1599.32 693.83,1600.04 693.895,1610.14C693.965,1621.08 693.659,1664.47 693.659,1664.47" style="fill:none;stroke:rgb(64,124,191);stroke-width:1.84px;"/>
            </g>
            <g transform="matrix(0.91225,0,0,0.91225,656.707,1412.9)">
                <path d="M549.676,1737.39C549.676,1737.39 549.968,1698.42 549.676,1686.02C549.471,1677.32 552.993,1670.06 561.343,1665.57C586.134,1652.24 652.833,1615.33 674.063,1603.93C682.662,1599.32 693.83,1600.04 693.895,1610.14C693.965,1621.08 693.659,1664.47 693.659,1664.47" style="fill:none;stroke:rgb(64,124,191);stroke-width:2.02px;"/>
            </g>
            <g transform="matrix(-0.91225,1.11718e-16,-1.11718e-16,-0.91225,1791.16,4516.07)">
                <path d="M590.733,1649.56C620.463,1633.27 658.884,1612.08 674.063,1603.93C682.662,1599.32 693.83,1600.04 693.895,1610.14C693.965,1621.08 693.659,1664.47 693.659,1664.47" style="fill:none;stroke:rgb(64,124,191);stroke-width:2.02px;"/>
            </g>
            <g transform="matrix(0.839214,0,0,0.839214,702.758,1536.99)">
                <path d="M549.676,1740.72C549.676,1740.72 549.968,1698.42 549.676,1686.02C549.471,1677.32 552.993,1670.06 561.343,1665.57C586.134,1652.24 652.833,1615.33 674.063,1603.93C682.662,1599.32 693.83,1600.04 693.895,1610.14C693.965,1621.08 693.659,1664.47 693.659,1664.47" style="fill:none;stroke:rgb(64,124,191);stroke-width:2.19px;"/>
            </g>
            <g transform="matrix(-0.839214,1.02774e-16,-1.02774e-16,-0.839214,1746.38,4387.89)">
                <path d="M598.282,1645.42C626.669,1629.85 660.141,1611.41 674.063,1603.93C682.662,1599.32 693.83,1600.04 693.895,1610.14C693.911,1612.7 693.907,1617.05 693.891,1622.21" style="fill:none;stroke:rgb(64,124,191);stroke-width:2.19px;"/>
            </g>
            <g transform="matrix(0.765572,0,0,0.765572,749.19,1662.12)">
                <path d="M549.676,1740.72C549.676,1740.72 549.968,1698.42 549.676,1686.02C549.471,1677.32 552.993,1670.06 561.343,1665.57C586.134,1652.24 652.833,1615.33 674.063,1603.93C682.662,1599.32 693.83,1600.04 693.895,1610.14C693.965,1621.08 693.659,1664.47 693.659,1664.47" style="fill:none;stroke:rgb(64,124,191);stroke-width:2.4px;"/>
            </g>
            <g transform="matrix(-0.765572,9.37556e-17,-9.37556e-17,-0.765572,1701.24,4259.7)">
                <path d="M606.074,1641.14C622.271,1632.25 639.353,1622.86 653.077,1615.35" style="fill:none;stroke:rgb(64,124,191);stroke-width:2.4px;"/>
            </g>
            <g transform="matrix(0.673638,0,0,0.673638,807.157,1818.33)">
                <path d="M549.676,1740.72C549.676,1740.72 549.968,1698.42 549.676,1686.02C549.471,1677.32 552.993,1670.06 561.343,1665.57C586.134,1652.24 652.833,1615.33 674.063,1603.93C682.662,1599.32 693.83,1600.04 693.895,1610.14C693.965,1621.08 693.659,1664.47 693.659,1664.47" style="fill:none;stroke:rgb(64,124,191);stroke-width:2.73px;"/>
            </g>
            <g transform="matrix(0.593849,0,0,0.593849,857.464,1953.9)">
                <path d="M549.676,1740.72C549.676,1740.72 549.968,1698.42 549.676,1686.02C549.471,1677.32 552.993,1670.06 561.343,1665.57C586.134,1652.24 652.833,1615.33 674.063,1603.93C682.662,1599.32 693.83,1600.04 693.895,1610.14C693.965,1621.08 693.659,1664.47 693.659,1664.47" style="fill:none;stroke:rgb(64,124,191);stroke-width:3.1px;"/>
            </g>
            <g transform="matrix(0.525041,0,0,0.525041,900.85,2070.82)">
                <path d="M549.676,1740.72C549.676,1740.72 549.968,1698.42 549.676,1686.02C549.471,1677.32 552.993,1670.06 561.343,1665.57C586.134,1652.24 652.833,1615.33 674.063,1603.93C682.662,1599.32 693.83,1600.04 693.895,1610.14C693.965,1621.08 693.659,1664.47 693.659,1664.47" style="fill:none;stroke:rgb(64,124,191);stroke-width:3.5px;"/>
            </g>
            <g transform="matrix(0.454365,0,0,0.454365,945.412,2190.9)">
                <path d="M549.676,1740.72C549.676,1740.72 549.968,1698.42 549.676,1686.02C549.471,1677.32 552.993,1670.06 561.343,1665.57C586.134,1652.24 652.833,1615.33 674.063,1603.93C682.662,1599.32 693.83,1600.04 693.895,1610.14C693.965,1621.08 693.659,1664.47 693.659,1664.47" style="fill:none;stroke:rgb(64,124,191);stroke-width:4.05px;"/>
            </g>
            <g transform="matrix(0.394087,0.325398,0.325398,0.825249,385.444,1379.76)">
                <path d="M520.668,1758.13L699.692,1661.99" style="fill:none;stroke:rgb(64,124,191);stroke-width:1.92px;"/>
            </g>
            <g transform="matrix(0.394087,0.325398,0.325398,0.825249,483.419,1327.82)">
                <path d="M520.668,1758.13L699.692,1661.99" style="fill:none;stroke:rgb(64,124,191);stroke-width:1.92px;"/>
            </g>
            <g transform="matrix(1,0,0,1,601.379,1263.8)">
                <path d="M626.55,1668.87L727.821,1720.97L768.033,1697.65L693.905,1658.16" style="fill:none;stroke:rgb(64,124,191);stroke-width:1.84px;stroke-linejoin:round;"/>
            </g>
            <g transform="matrix(1,0,0,1,502.236,1316.91)">
                <path d="M692.926,1658.16C692.926,1658.16 693.036,1644.24 692.926,1639.74C692.824,1635.61 694.558,1632.78 697.443,1631.23C703.411,1628.04 725.694,1615.75 725.694,1615.75L827.438,1667.71L867.177,1644.54L792.845,1605.04L793.049,1575.42L801.205,1571.04L936.172,1643.94L725.762,1755.15L602.791,1682.7L629.78,1667.02L726.206,1721.48L768.033,1697.65L692.926,1658.16Z" style="fill:white;stroke:rgb(64,124,191);stroke-width:1.84px;stroke-linejoin:round;"/>
            </g>
            <g transform="matrix(1,0,0,1,601.379,1263.8)">
                <path d="M693.905,1663.26L725.906,1680.89L688.556,1700.77L693.905,1703.52L731.172,1684.34L762.395,1700.92L768.033,1697.65L693.905,1658.16L693.905,1663.26Z" style="fill:rgb(190,190,190);stroke:rgb(64,124,191);stroke-width:1.84px;"/>
            </g>
            <g transform="matrix(1,0,0,1,502.236,1316.91)">
                <path d="M693.905,1663.26L725.906,1680.89L689.382,1700.68L694.506,1703.58L731.172,1684.34L762.395,1700.92L768.033,1697.65L693.905,1658.16L693.905,1663.26Z" style="fill:rgb(190,190,190);stroke:rgb(64,124,191);stroke-width:1.84px;"/>
            </g>
            <g transform="matrix(1,0,0,1,601.379,1263.8)">
                <path d="M503.648,1735.82L503.648,1741.42L626.278,1814.7L837.029,1704.22L837.029,1697.06L626.618,1808.26L503.648,1735.82Z" style="fill:rgb(190,190,190);stroke:rgb(64,124,191);stroke-width:1.84px;stroke-linejoin:round;"/>
            </g>
            <g transform="matrix(1,0,0,1,601.379,1263.8)">
                <path d="M626.618,1808.26L626.278,1814.7" style="fill:none;stroke:rgb(64,124,191);stroke-width:1.84px;stroke-linejoin:round;"/>
            </g>
            <g transform="matrix(1,0,0,1,601.379,1263.8)">
                <path d="M453.534,1649.32L394.029,1682.53L549.668,1774.59L555.267,1772.27L556.773,1773.17L556.762,1776.34L549.703,1779.5L393.586,1688.51L393.586,1679.87L453.534,1646.45L453.534,1649.32Z" style="fill:rgb(190,190,190);stroke:rgb(64,124,191);stroke-width:1.84px;stroke-linejoin:round;"/>
            </g>
            <g transform="matrix(1,0,0,1,601.379,1263.8)">
                <path d="M549.668,1774.59L549.703,1779.5" style="fill:none;stroke:rgb(64,124,191);stroke-width:1.84px;stroke-linejoin:round;"/>
            </g>
            <g transform="matrix(1,0,0,1,601.379,1263.8)">
                <path d="M453.534,1723.44L453.534,1743.42C453.534,1744.91 454.321,1746.29 455.605,1747.05C470.088,1755.62 555.614,1806.23 555.614,1806.23" style="fill:none;stroke:rgb(64,124,191);stroke-width:1.84px;stroke-linejoin:round;"/>
            </g>
            <g transform="matrix(1,0,0,1,601.379,1263.8)">
                <path d="M520.98,1757.62L526.285,1754.95" style="fill:none;stroke:rgb(64,124,191);stroke-width:1.84px;stroke-linejoin:round;"/>
            </g>
        </g>
    </g>
</svg>
