<?xml version="1.0" encoding="UTF-8" standalone="no"?>
<!DOCTYPE svg PUBLIC "-//W3C//DTD SVG 1.1//EN" "http://www.w3.org/Graphics/SVG/1.1/DTD/svg11.dtd">
<svg width="100%" height="100%" viewBox="0 0 693 418" version="1.1" xmlns="http://www.w3.org/2000/svg" xmlns:xlink="http://www.w3.org/1999/xlink" xml:space="preserve" xmlns:serif="http://www.serif.com/" style="fill-rule:evenodd;clip-rule:evenodd;stroke-linecap:round;stroke-miterlimit:1.5;">
    <g transform="matrix(1,0,0,1,-1298,-2560)">
        <g transform="matrix(1.18457,0,0,1.18457,-364.573,-679.866)">
            <g transform="matrix(0.799257,0,0,0.812664,1300.59,1555.32)">
                <path d="M689.331,1601.48C689.331,1601.48 606.396,1555.26 590.746,1546.53C589.171,1545.65 587.248,1545.63 585.651,1546.47C570.97,1554.2 497.174,1593.03 466.714,1609.05C458.6,1613.32 453.534,1621.64 453.534,1630.69L453.534,1738.12C453.534,1739.97 454.532,1741.68 456.156,1742.61C471.568,1751.44 549.668,1796.19 549.668,1796.19L556.762,1793.38" style="fill:none;stroke:rgb(64,124,191);stroke-width:2.28px;"/>
            </g>
            <g transform="matrix(0.799257,0,0,0.812664,1300.59,1555.32)">
                <path d="M549.676,1729.86C549.676,1729.86 549.968,1698.42 549.676,1686.02C549.471,1677.32 552.993,1670.06 561.343,1665.57C586.134,1652.24 652.833,1615.33 674.063,1603.93C682.662,1599.32 693.83,1600.04 693.895,1610.14C693.965,1621.08 693.905,1695.99 693.905,1695.99" style="fill:none;stroke:rgb(64,124,191);stroke-width:2.28px;"/>
            </g>
            <g transform="matrix(0.729122,0,0,0.741353,1344.82,1676.48)">
                <path d="M549.676,1737.39C549.676,1737.39 549.968,1698.42 549.676,1686.02C549.471,1677.32 552.993,1670.06 561.343,1665.57C586.134,1652.24 652.833,1615.33 674.063,1603.93C682.662,1599.32 693.83,1600.04 693.895,1610.14C693.965,1621.08 693.659,1691.91 693.659,1691.91" style="fill:none;stroke:rgb(64,124,191);stroke-width:2.5px;"/>
            </g>
            <g transform="matrix(0.670748,0,0,0.681999,1381.62,1777.33)">
                <path d="M549.676,1744.13C549.676,1744.13 549.968,1698.42 549.676,1686.02C549.471,1677.32 552.993,1670.06 561.343,1665.57C586.134,1652.24 652.833,1615.33 674.063,1603.93C682.662,1599.32 693.83,1600.04 693.895,1610.14C693.965,1621.08 693.659,1688 693.659,1688" style="fill:none;stroke:rgb(64,124,191);stroke-width:2.72px;"/>
            </g>
            <g transform="matrix(0.611889,0,0,0.622153,1418.73,1879.02)">
                <path d="M549.676,1752.6C549.676,1752.6 549.968,1698.42 549.676,1686.02C549.471,1677.32 552.993,1670.06 561.343,1665.57C586.134,1652.24 652.833,1615.33 674.063,1603.93C682.662,1599.32 693.83,1600.04 693.895,1610.14C693.965,1621.08 693.577,1683.26 693.577,1683.26" style="fill:none;stroke:rgb(64,124,191);stroke-width:2.98px;"/>
            </g>
            <g transform="matrix(0.53841,0,0,0.547441,1465.06,2005.97)">
                <path d="M549.676,1765.76C549.676,1765.76 549.968,1698.42 549.676,1686.02C549.471,1677.32 552.993,1670.06 561.343,1665.57C586.134,1652.24 652.833,1615.33 674.063,1603.93C682.662,1599.32 693.83,1600.04 693.895,1610.14C693.965,1621.08 693.609,1675.98 693.609,1675.98" style="fill:none;stroke:rgb(64,124,191);stroke-width:3.39px;"/>
            </g>
            <g transform="matrix(0.474638,0,0,0.4826,1505.27,2116.14)">
                <path d="M549.676,1780.5C549.676,1780.5 549.968,1698.42 549.676,1686.02C549.471,1677.32 552.993,1670.06 561.343,1665.57C586.134,1652.24 652.833,1615.33 674.063,1603.93C682.662,1599.32 693.83,1600.04 693.895,1610.14C693.965,1621.08 693.659,1667.18 693.659,1667.18" style="fill:none;stroke:rgb(64,124,191);stroke-width:3.84px;"/>
            </g>
            <g transform="matrix(0.419642,0,0,0.426682,1539.95,2211.15)">
                <path d="M549.676,1785.17C549.676,1785.17 549.968,1698.42 549.676,1686.02C549.471,1677.32 552.993,1670.06 561.343,1665.57C586.134,1652.24 652.833,1615.33 674.063,1603.93C682.662,1599.32 693.83,1600.04 693.895,1610.14C693.965,1621.08 693.659,1664.47 693.659,1664.47" style="fill:none;stroke:rgb(64,124,191);stroke-width:4.35px;"/>
            </g>
            <g transform="matrix(0.363154,0,0,0.369246,1575.56,2308.74)">
                <path d="M558.825,1774.39C558.825,1774.39 556.046,1775.6 553.551,1776.69C552.701,1777.06 551.717,1776.99 550.937,1776.49C550.157,1775.99 549.688,1775.13 549.691,1774.22C549.746,1757.63 549.928,1696.71 549.676,1686.02C549.471,1677.32 552.993,1670.06 561.343,1665.57C586.134,1652.24 652.833,1615.33 674.063,1603.93C682.662,1599.32 693.83,1600.04 693.895,1610.14C693.965,1621.08 693.659,1664.47 693.659,1664.47" style="fill:none;stroke:rgb(64,124,191);stroke-width:5.02px;"/>
            </g>
            <g transform="matrix(0.80081,0,0,0.790794,1214.25,1632.85)">
                <path d="M700.514,1655.43C700.514,1655.43 700.567,1646.13 700.456,1641.63C700.354,1637.49 703.21,1633.76 706.095,1632.22C712.063,1629.03 744.52,1610.56 744.52,1610.56L828.777,1662.28L868.962,1640.47L800.385,1596.91L800.385,1571.04L812.366,1563.63L934.387,1639.42L721.744,1752.89L600.113,1683.95L630.673,1665.66L728.406,1719.22L769.819,1695.39L700.514,1655.43Z" style="fill:white;stroke:rgb(64,124,191);stroke-width:2.31px;stroke-linejoin:round;"/>
            </g>
            <g transform="matrix(1,0,0,1,601.379,1263.8)">
                <path d="M1211.5,1719.89L1173.8,1698.22" style="fill:none;stroke:rgb(64,124,191);stroke-width:1.84px;stroke-linejoin:round;"/>
            </g>
            <g transform="matrix(1,0,0,1,601.379,1263.8)">
                <path d="M1061.7,1646.29L1032.73,1662.94L1032.95,1685.65L1036.62,1687.38L1036.62,1664.24L1061.7,1649.56L1061.7,1646.29Z" style="fill:rgb(190,190,190);stroke:rgb(64,124,191);stroke-width:1.84px;stroke-linejoin:round;"/>
            </g>
            <g transform="matrix(1,0,0,1,592.946,1259.47)">
                <path d="M1070.14,1642.18L1032.73,1662.94L1032.95,1685.65L1036.62,1687.38L1036.62,1664.24L1070.14,1645.45L1070.14,1642.18Z" style="fill:rgb(190,190,190);stroke:rgb(64,124,191);stroke-width:1.84px;stroke-linejoin:round;"/>
            </g>
            <g transform="matrix(1,0,0,1,601.379,1263.8)">
                <path d="M1095.13,1512.88L929.661,1600.34L929.661,1623.82L954.272,1638.21L1119.74,1550.74L1119.74,1528.78L1095.13,1512.88Z" style="fill:none;stroke:rgb(64,124,191);stroke-width:1.84px;stroke-linejoin:round;"/>
            </g>
            <g transform="matrix(1,0,0,1,601.379,1241.46)">
                <path d="M929.661,1623.82L954.272,1638.21L1119.74,1550.74" style="fill:none;stroke:rgb(64,124,191);stroke-width:1.84px;stroke-linejoin:round;"/>
            </g>
            <g transform="matrix(1,0,0,1,601.379,1263.8)">
                <path d="M954.272,1615.87L954.272,1638.01" style="fill:none;stroke:rgb(64,124,191);stroke-width:1.84px;stroke-linejoin:round;"/>
            </g>
            <g transform="matrix(1,0,0,1,601.379,1263.8)">
                <path d="M1288.1,1677.39L1253.82,1657.5" style="fill:none;stroke:rgb(64,124,191);stroke-width:1.84px;stroke-linejoin:round;"/>
            </g>
            <g transform="matrix(1,0,0,1,601.379,1263.8)">
                <path d="M1164.45,1711.43L1182.17,1703.03" style="fill:none;stroke:rgb(64,124,191);stroke-width:1.84px;stroke-linejoin:round;"/>
            </g>
            <g transform="matrix(1,0,0,1,604.666,1265.62)">
                <path d="M1164.45,1711.43L1182.17,1703.03" style="fill:none;stroke:rgb(64,124,191);stroke-width:1.84px;stroke-linejoin:round;"/>
            </g>
            <g transform="matrix(0.975049,0.0118244,0.0118244,0.994396,617.818,1263.74)">
                <path d="M1164.45,1711.43L1182.17,1703.03" style="fill:none;stroke:rgb(64,124,191);stroke-width:1.85px;stroke-linejoin:round;"/>
            </g>
            <g transform="matrix(0.952258,0.0226255,0.0226255,0.989277,630.159,1262.24)">
                <path d="M1164.45,1711.43L1182.17,1703.03" style="fill:none;stroke:rgb(64,124,191);stroke-width:1.85px;stroke-linejoin:round;"/>
            </g>
            <g transform="matrix(0.974342,0.0121597,0.0121597,0.994237,626.385,1268.08)">
                <path d="M1164.45,1711.43L1182.17,1703.03" style="fill:none;stroke:rgb(64,124,191);stroke-width:1.85px;stroke-linejoin:round;"/>
            </g>
            <g transform="matrix(0.970068,0.014185,0.014185,0.993278,632.137,1269.7)">
                <path d="M1164.45,1711.43L1182.17,1703.03" style="fill:none;stroke:rgb(64,124,191);stroke-width:1.85px;stroke-linejoin:round;"/>
            </g>
            <g transform="matrix(1,0,0,1,601.379,1263.8)">
                <path d="M1093.44,1700.97L1093.44,1722.37L1190.85,1777.9L1361.13,1688.96L1361.13,1665.5L1190.85,1755.23L1093.44,1700.97Z" style="fill:rgb(190,190,190);stroke:rgb(64,124,191);stroke-width:1.84px;stroke-linejoin:round;"/>
            </g>
            <g transform="matrix(1,0,0,1,601.379,1263.8)">
                <path d="M1190.85,1755.23L1190.85,1777.9" style="fill:none;stroke:rgb(64,124,191);stroke-width:1.84px;stroke-linejoin:round;"/>
            </g>
            <g transform="matrix(1,0,0,1,601.379,1263.8)">
                <path d="M1229.35,1709.76L1173.85,1678.16L1173.8,1698.22L1211.5,1719.89L1229.35,1709.76Z" style="fill:rgb(190,190,190);stroke:rgb(64,124,191);stroke-width:1.84px;stroke-linejoin:round;"/>
            </g>
            <g transform="matrix(1,0,0,1,601.379,1263.8)">
                <path d="M1308.74,1666.32L1253.82,1631.88L1253.82,1657.5L1288.1,1677.39L1308.74,1666.32Z" style="fill:rgb(190,190,190);stroke:rgb(64,124,191);stroke-width:1.84px;stroke-linejoin:round;"/>
            </g>
            <g transform="matrix(1,0,0,1,601.379,1263.8)">
                <path d="M1036.62,1687.38L1061.7,1673.32" style="fill:none;stroke:rgb(64,124,191);stroke-width:1.84px;stroke-linejoin:round;"/>
            </g>
            <g transform="matrix(1,0,0,1,592.946,1259.47)">
                <path d="M1036.62,1687.38L1041.16,1685" style="fill:none;stroke:rgb(64,124,191);stroke-width:1.84px;stroke-linejoin:round;"/>
            </g>
            <g transform="matrix(1,0,0,1,601.379,1263.8)">
                <path d="M1036.62,1664.24L1032.73,1662.94" style="fill:none;stroke:rgb(64,124,191);stroke-width:1.84px;stroke-linejoin:round;"/>
            </g>
            <g transform="matrix(1,0,0,1,592.946,1259.47)">
                <path d="M1036.62,1664.24L1032.73,1662.94" style="fill:none;stroke:rgb(64,124,191);stroke-width:1.84px;stroke-linejoin:round;"/>
            </g>
            <g transform="matrix(-1,0,0,1,2750.24,2023.21)">
                <g transform="matrix(-0.844185,0,0,0.844185,1346.72,711.841)">
                    <path d="M260.36,262.862L261.039,249.485L249.93,256.968C254.011,255.834 259.226,258.781 260.36,262.862Z" style="fill:rgb(64,124,191);"/>
                    <path d="M256.324,257.829C242.929,281.532 205.612,347.565 205.612,347.565L182.162,347.565" style="fill:none;stroke:rgb(64,124,191);stroke-width:3.99px;stroke-linejoin:round;"/>
                </g>
            </g>
            <g transform="matrix(-0.992768,-0.120051,-0.120051,0.992768,2865.7,2173.27)">
                <g transform="matrix(-0.83808,-0.101346,-0.101346,0.83808,1384.17,733.246)">
                    <path d="M273.48,272.27L276.282,259.172L264.122,264.789C268.332,264.32 273.011,268.06 273.48,272.27Z" style="fill:rgb(64,124,191);"/>
                    <path d="M270.297,266.658C253.242,287.99 205.612,347.565 205.612,347.565" style="fill:none;stroke:rgb(64,124,191);stroke-width:3.99px;stroke-linejoin:round;"/>
                </g>
            </g>
            <g transform="matrix(1,0,0,1,208.93,2021.97)">
                <text x="1220.84px" y="1006.15px" style="font-family:'Candara', sans-serif;font-size:20.833px;stroke:rgb(64,124,191);stroke-width:1.84px;stroke-linecap:butt;stroke-linejoin:round;stroke-miterlimit:2;">GAP SP<tspan x="1284.38px 1297.22px " y="1006.15px 1006.15px ">AC</tspan>ERS</text>
            </g>
        </g>
    </g>
</svg>
