<?xml version="1.0" encoding="UTF-8" standalone="no"?><!DOCTYPE svg PUBLIC "-//W3C//DTD SVG 1.1//EN" "http://www.w3.org/Graphics/SVG/1.1/DTD/svg11.dtd"><svg width="100%" height="100%" viewBox="0 0 182 182" version="1.1" xmlns="http://www.w3.org/2000/svg" xmlns:xlink="http://www.w3.org/1999/xlink" xml:space="preserve" xmlns:serif="http://www.serif.com/" style="fill-rule:evenodd;clip-rule:evenodd;stroke-linejoin:round;stroke-miterlimit:2;"><circle cx="92.263" cy="90.183" r="78.807" style="fill:#e7b693;"/><path d="M153.374,125.847c0.803,-1.753 -10.735,-4.093 -15.523,-7.555c-4.953,-3.581 -10.418,-8.855 -14.192,-13.929c-3.579,-4.812 -5.652,-10.997 -8.452,-16.516c-3.044,-6.001 -6.857,-14.784 -9.814,-19.489c-2.164,-3.442 -5.713,-7.604 -7.925,-8.736c-1.715,-0.877 -5.125,-0.292 -5.348,1.948c-0.225,2.272 2.281,8.018 3.994,11.686c1.714,3.667 5.622,7.837 6.29,10.32c0.456,1.696 -1.051,3.605 -2.284,4.578c-2.228,1.758 -7.872,3.56 -11.084,5.969c-3.054,2.291 -6.299,5.269 -8.188,8.487c-1.83,3.116 -3.06,7.609 -3.15,10.819c-0.083,3.004 0.993,6.167 2.614,8.441c1.829,2.565 5.041,6.169 8.358,6.948c5.407,1.27 16.69,0.674 24.084,0.672c6.763,-0.002 13.536,-0.079 20.281,-0.684c6.77,-0.607 19.536,-1.207 20.339,-2.959Zm-32.044,-8.074c0.611,-2.032 -3.991,-6.248 -5.786,-8.981c-1.637,-2.493 -3.23,-5.46 -4.981,-7.413c-1.611,-1.797 -3.336,-4.254 -5.525,-4.304c-2.324,-0.053 -5.931,1.927 -8.42,3.985c-2.828,2.338 -7.126,7.416 -8.551,10.042c-0.863,1.591 -1.091,4.342 0,5.712c1.228,1.541 4.753,3.075 7.367,3.533c3.969,0.695 12.129,1.067 16.445,0.638c3.261,-0.324 8.84,-1.18 9.451,-3.212Z" style="fill:#221c18;"/><path d="M82.202,56.479c0.509,-2.268 0.15,-6.917 -1.257,-9.69c-1.407,-2.773 -4.261,-5.661 -7.186,-6.95c-3.353,-1.477 -8.628,-2.602 -12.933,-1.915c-4.521,0.721 -9.906,3.143 -14.192,6.245c-4.7,3.401 -11.01,9.33 -14.012,14.165c-2.618,4.218 -3.77,9.672 -3.996,14.844c-0.27,6.151 0.097,15.806 2.38,22.06c2.266,6.208 7.757,12.335 11.317,15.462c2.765,2.429 6.929,3.402 10.042,3.299c3.096,-0.103 6.422,-2.303 8.64,-3.918c1.932,-1.406 4.311,-4.02 4.671,-5.772c0.359,-1.753 -1.168,-3.986 -2.515,-4.742c-1.347,-0.756 -3.807,-0.467 -5.569,0.206c-1.799,0.687 -3.149,4.038 -5.227,3.917c-2.365,-0.137 -7.051,-2.508 -8.964,-4.741c-1.859,-2.17 -2.485,-5.739 -2.515,-8.659c-0.03,-2.921 0.422,-6.804 2.335,-8.865c1.913,-2.062 5.958,-3.027 9.144,-3.505c3.892,-0.584 9.805,-0.206 14.209,-0c4.084,0.191 8.701,0.975 12.215,1.237c2.953,0.22 6.63,0.469 8.872,0.336c1.559,-0.093 4.337,-0.164 4.58,-1.135c0.243,-0.971 -1.546,-3.92 -3.124,-4.69c-2.743,-1.34 -9.077,-2.654 -13.336,-3.35c-4.039,-0.66 -8.314,-0.683 -12.217,-0.825c-3.731,-0.135 -8.108,-0.022 -11.199,-0.026c-2.449,-0.003 -5.872,0.799 -7.348,0c-1.338,-0.725 -2.049,-3.216 -1.503,-4.794c0.758,-2.186 3.824,-6.035 6.047,-8.325c2.154,-2.218 4.674,-3.993 7.291,-5.411c2.742,-1.486 6.624,-3.277 9.161,-3.504c2.108,-0.189 4.772,0.563 6.063,2.14c1.291,1.576 0.714,5.514 1.683,7.318c0.899,1.673 2.725,3.574 4.132,3.505c1.407,-0.069 3.854,-1.88 4.311,-3.917Z" style="fill:#221c18;"/></svg>