<?xml version="1.0" encoding="UTF-8" standalone="no"?><!DOCTYPE svg PUBLIC "-//W3C//DTD SVG 1.1//EN" "http://www.w3.org/Graphics/SVG/1.1/DTD/svg11.dtd"><svg width="100%" height="100%" viewBox="0 0 182 182" version="1.1" xmlns="http://www.w3.org/2000/svg" xmlns:xlink="http://www.w3.org/1999/xlink" xml:space="preserve" xmlns:serif="http://www.serif.com/" style="fill-rule:evenodd;clip-rule:evenodd;stroke-linejoin:round;stroke-miterlimit:2;"><circle cx="92.263" cy="93.586" r="78.807" style="fill:#7e8b65;"/><path d="M153.892,128.593c0.808,-2.057 -10.808,-4.804 -15.63,-8.867c-4.986,-4.203 -10.489,-10.393 -14.289,-16.349c-3.603,-5.647 -5.69,-12.907 -8.509,-19.384c-3.065,-7.043 -6.905,-17.353 -9.881,-22.874c-2.179,-4.04 -5.752,-8.925 -7.98,-10.253c-1.726,-1.03 -5.16,-0.343 -5.384,2.285c-0.227,2.667 2.296,9.411 4.021,13.716c1.726,4.305 5.661,9.198 6.333,12.113c0.459,1.99 -1.058,4.231 -2.3,5.374c-2.243,2.063 -7.926,4.177 -11.16,7.005c-3.074,2.688 -6.341,6.184 -8.244,9.96c-1.842,3.658 -3.081,8.932 -3.171,12.7c-0.084,3.524 1,7.237 2.632,9.906c1.841,3.01 5.075,7.241 8.415,8.155c5.444,1.491 16.804,0.791 24.249,0.789c6.809,-0.002 13.629,-0.093 20.419,-0.803c6.816,-0.712 19.671,-1.416 20.479,-3.473Zm-32.264,-9.476c0.615,-2.385 -4.018,-7.334 -5.825,-10.541c-1.649,-2.927 -3.252,-6.409 -5.015,-8.701c-1.622,-2.109 -3.359,-4.993 -5.563,-5.052c-2.34,-0.062 -5.971,2.263 -8.477,4.677c-2.848,2.744 -7.175,8.705 -8.61,11.787c-0.869,1.867 -1.099,5.096 0,6.704c1.236,1.808 4.786,3.609 7.418,4.147c3.995,0.816 12.211,1.252 16.557,0.748c3.283,-0.38 8.9,-1.384 9.515,-3.769Z" style="fill:#fff;"/><path d="M86.927,54.751c0.554,-2.503 0.163,-7.633 -1.368,-10.693c-1.532,-3.06 -4.637,-6.247 -7.819,-7.669c-3.648,-1.631 -9.388,-2.872 -14.072,-2.114c-4.919,0.797 -10.779,3.469 -15.441,6.891c-5.115,3.754 -11.98,10.297 -15.246,15.632c-2.849,4.654 -4.102,10.673 -4.349,16.38c-0.293,6.787 0.106,17.442 2.59,24.343c2.466,6.851 8.44,13.612 12.314,17.062c3.008,2.68 7.538,3.754 10.926,3.64c3.368,-0.113 6.987,-2.54 9.401,-4.322c2.102,-1.552 4.691,-4.436 5.082,-6.37c0.391,-1.934 -1.271,-4.398 -2.737,-5.233c-1.465,-0.834 -4.141,-0.515 -6.059,0.228c-1.957,0.758 -3.426,4.456 -5.687,4.322c-2.573,-0.151 -7.672,-2.768 -9.754,-5.232c-2.022,-2.394 -2.703,-6.332 -2.736,-9.555c-0.033,-3.223 0.459,-7.508 2.541,-9.783c2.082,-2.275 6.482,-3.34 9.949,-3.867c4.235,-0.645 10.668,-0.228 15.46,-0c4.444,0.211 9.467,1.075 13.291,1.365c3.213,0.243 7.213,0.517 9.652,0.37c1.698,-0.102 4.72,-0.18 4.984,-1.252c0.264,-1.071 -1.682,-4.325 -3.399,-5.175c-2.984,-1.479 -9.876,-2.929 -14.51,-3.697c-4.394,-0.728 -9.047,-0.754 -13.293,-0.91c-4.059,-0.15 -8.821,-0.024 -12.185,-0.029c-2.665,-0.004 -6.389,0.882 -7.994,0c-1.457,-0.8 -2.231,-3.549 -1.636,-5.29c0.824,-2.413 4.16,-6.66 6.579,-9.187c2.344,-2.448 5.086,-4.406 7.934,-5.971c2.983,-1.64 7.206,-3.616 9.967,-3.867c2.293,-0.208 5.192,0.622 6.597,2.362c1.404,1.739 0.777,6.085 1.831,8.076c0.978,1.846 2.965,3.943 4.496,3.867c1.531,-0.076 4.193,-2.075 4.691,-4.322Z" style="fill:#fff;"/></svg>