<?xml version="1.0" encoding="UTF-8" standalone="no"?><!DOCTYPE svg PUBLIC "-//W3C//DTD SVG 1.1//EN" "http://www.w3.org/Graphics/SVG/1.1/DTD/svg11.dtd"><svg width="100%" height="100%" viewBox="0 0 697 267" version="1.1" xmlns="http://www.w3.org/2000/svg" xmlns:xlink="http://www.w3.org/1999/xlink" xml:space="preserve" xmlns:serif="http://www.serif.com/" style="fill-rule:evenodd;clip-rule:evenodd;stroke-linejoin:round;stroke-miterlimit:2;"><g><path d="M59.326,61.207l-0,75l-8,-0l-0,-75l8,-0Zm33.625,71.125l-0.25,3.875l-33.625,-0l-0,-3.875l33.875,-0Zm-5.875,-35.5l-0,3.75l-28,-0l-0,-3.75l28,-0Zm5.75,-35.625l-0,3.875l-33.75,-0l-0,-3.875l33.75,-0Zm7.125,57.125l-6.875,17.875l-19,-0l4.25,-3.875c4.166,-0 7.521,-0.605 10.062,-1.813c2.542,-1.208 4.604,-2.875 6.188,-5c1.583,-2.125 2.958,-4.521 4.125,-7.187l1.25,-0Zm-12.875,-18l-0,7.125l-1.375,-0l-0,-1.625c-0,-1.417 -0.417,-2.646 -1.25,-3.688c-0.834,-1.042 -2.125,-1.562 -3.875,-1.562l-0,-0.25l6.5,-0Zm-0,-10.375l-0,7.125l-6.5,-0l-0,-0.25c1.75,-0 3.041,-0.521 3.875,-1.563c0.833,-1.042 1.25,-2.271 1.25,-3.687l-0,-1.625l1.375,-0Zm5.75,-25.25l-0,8.625l-1.375,-0l-0,-1.875c-0,-1.75 -0.563,-3.25 -1.688,-4.5c-1.125,-1.25 -2.646,-1.875 -4.562,-1.875l-0,-0.375l7.625,-0Zm-0,-5.5l-0,3.25l-14.25,-1.25c2.583,-0 5.333,-0.23 8.25,-0.688c2.916,-0.458 4.916,-0.896 6,-1.312Zm-41.25,69l1.625,8l-10.875,-0l-0,-1.25l1.75,-0c2.083,-0 3.791,-0.667 5.125,-2c1.333,-1.334 2.041,-2.917 2.125,-4.75l0.25,-0Zm-0,-59.125l-0.25,-0c-0.084,-1.917 -0.792,-3.5 -2.125,-4.75c-1.334,-1.25 -3.042,-1.875 -5.125,-1.875l-1.75,-0l-0,-1.25l10.875,-0l-1.625,7.875Z" style="fill-rule:nonzero;"/><path d="M126.326,61.207l-0,75l-8,-0l-0,-75l8,-0Zm33.625,71.125l-0.25,3.875l-33.625,-0l-0,-3.875l33.875,-0Zm7,-14l-6.875,17.875l-19,-0l4.25,-3.875c4.166,-0 7.521,-0.605 10.062,-1.813c2.542,-1.208 4.604,-2.875 6.188,-5c1.583,-2.125 2.958,-4.521 4.125,-7.187l1.25,-0Zm-48.375,9.875l1.625,8l-10.875,-0l-0,-1.25l1.75,-0c2.083,-0 3.791,-0.667 5.125,-2c1.333,-1.334 2.041,-2.917 2.125,-4.75l0.25,-0Zm7.375,-59l-0,-8l9.25,-0l-0,1.25l-1.5,-0c-2,-0 -3.729,0.645 -5.188,1.937c-1.458,1.292 -2.187,2.896 -2.187,4.813l-0.375,-0Zm-7.375,-0l-0.25,-0c-0.084,-1.917 -0.834,-3.521 -2.25,-4.813c-1.417,-1.292 -3.167,-1.937 -5.25,-1.937l-1.5,-0l-0,-1.25l9.25,-0l-0,8Z" style="fill-rule:nonzero;"/><path d="M190.326,61.207l-0,75l-8,-0l-0,-75l8,-0Zm33.625,71.125l-0.25,3.875l-33.625,-0l-0,-3.875l33.875,-0Zm-5.875,-35.5l-0,3.75l-28,-0l-0,-3.75l28,-0Zm5.75,-35.625l-0,3.875l-33.75,-0l-0,-3.875l33.75,-0Zm7.125,57.125l-6.875,17.875l-19,-0l4.25,-3.875c4.166,-0 7.521,-0.605 10.062,-1.813c2.542,-1.208 4.604,-2.875 6.188,-5c1.583,-2.125 2.958,-4.521 4.125,-7.187l1.25,-0Zm-12.875,-18l-0,7.125l-1.375,-0l-0,-1.625c-0,-1.417 -0.417,-2.646 -1.25,-3.688c-0.834,-1.042 -2.125,-1.562 -3.875,-1.562l-0,-0.25l6.5,-0Zm-0,-10.375l-0,7.125l-6.5,-0l-0,-0.25c1.75,-0 3.041,-0.521 3.875,-1.563c0.833,-1.042 1.25,-2.271 1.25,-3.687l-0,-1.625l1.375,-0Zm5.75,-25.25l-0,8.625l-1.375,-0l-0,-1.875c-0,-1.75 -0.563,-3.25 -1.688,-4.5c-1.125,-1.25 -2.646,-1.875 -4.562,-1.875l-0,-0.375l7.625,-0Zm-0,-5.5l-0,3.25l-14.25,-1.25c2.583,-0 5.333,-0.23 8.25,-0.688c2.916,-0.458 4.916,-0.896 6,-1.312Zm-41.25,69l1.625,8l-10.875,-0l-0,-1.25l1.75,-0c2.083,-0 3.791,-0.667 5.125,-2c1.333,-1.334 2.041,-2.917 2.125,-4.75l0.25,-0Zm-0,-59.125l-0.25,-0c-0.084,-1.917 -0.792,-3.5 -2.125,-4.75c-1.334,-1.25 -3.042,-1.875 -5.125,-1.875l-1.75,-0l-0,-1.25l10.875,-0l-1.625,7.875Z" style="fill-rule:nonzero;"/><path d="M317.951,104.707l-1.375,17.125c-2.167,3.333 -5,6.208 -8.5,8.625c-3.5,2.416 -7.459,4.27 -11.875,5.562c-4.417,1.292 -9.084,1.938 -14,1.938c-8.417,-0.084 -15.729,-1.709 -21.938,-4.875c-6.208,-3.167 -10.979,-7.667 -14.312,-13.5c-3.334,-5.834 -5,-12.792 -5,-20.875c-0,-8.167 1.666,-15.167 5,-21c3.333,-5.834 8.104,-10.334 14.312,-13.5c6.209,-3.167 13.521,-4.75 21.938,-4.75c5.166,-0 10.375,0.666 15.625,2c5.25,1.333 9.791,3.208 13.625,5.625l2.75,17.625l-1.125,-0c-1.834,-7.667 -5.521,-13.167 -11.063,-16.5c-5.541,-3.334 -12.187,-5 -19.937,-5c-6.584,-0 -12.271,1.437 -17.063,4.312c-4.791,2.875 -8.5,6.958 -11.125,12.25c-2.625,5.292 -3.937,11.604 -3.937,18.938c-0,7.166 1.312,13.395 3.937,18.687c2.625,5.292 6.354,9.375 11.188,12.25c4.833,2.875 10.541,4.354 17.125,4.438c6.25,-0 11.896,-1.021 16.937,-3.063c5.042,-2.042 9.146,-5.229 12.313,-9.562c3.166,-4.334 4.958,-9.917 5.375,-16.75l1.125,-0Z" style="fill-rule:nonzero;"/><path d="M363.076,61.582l-0,74.625l-8.125,-0l-0,-74.625l8.125,-0Zm30.25,-0.5l-0,3.75l-68.625,-0l-0,-3.75l68.625,-0Zm-0,3.5l-0,8.625l-1.375,-0l-0,-2c-0,-1.75 -0.563,-3.23 -1.688,-4.438c-1.125,-1.208 -2.646,-1.854 -4.562,-1.937l-0,-0.25l7.625,-0Zm-0,-5.5l-0,3.25l-14,-1.25c1.666,-0 3.437,-0.105 5.312,-0.313c1.875,-0.208 3.604,-0.479 5.188,-0.812c1.583,-0.334 2.75,-0.625 3.5,-0.875Zm-38.125,69.125l-0,8l-9.125,-0l-0,-1.25l1.5,-0c2,-0 3.708,-0.667 5.125,-2c1.416,-1.334 2.166,-2.917 2.25,-4.75l0.25,-0Zm7.5,-0l0.375,-0c0.083,1.833 0.833,3.416 2.25,4.75c1.416,1.333 3.125,2 5.125,2l1.375,-0l-0,1.25l-9.125,-0l-0,-8Zm-30.375,-63.625l-0,0.25c-1.917,0.083 -3.438,0.729 -4.563,1.937c-1.125,1.208 -1.687,2.688 -1.687,4.438l-0,2l-1.375,-0l-0,-8.625l7.625,-0Zm-7.625,-5.5c0.75,0.25 1.896,0.541 3.437,0.875c1.542,0.333 3.271,0.604 5.188,0.812c1.916,0.208 3.708,0.313 5.375,0.313l-14,1.25l-0,-3.25Z" style="fill-rule:nonzero;"/><path d="M417.201,61.207l16.125,-0c3.916,-0 7.437,0.458 10.562,1.375c3.125,0.916 5.792,2.25 8,4c2.209,1.75 3.896,3.875 5.063,6.375c1.166,2.5 1.75,5.333 1.75,8.5c-0,3.5 -0.834,6.75 -2.5,9.75c-1.667,3 -3.979,5.458 -6.938,7.375c-2.958,1.916 -6.312,3.083 -10.062,3.5c1.416,0.583 3.062,1.875 4.937,3.875c1.875,2 3.479,3.958 4.813,5.875c-0,-0 0.541,0.729 1.625,2.187c1.083,1.458 2.479,3.25 4.187,5.375c1.709,2.125 3.396,4.146 5.063,6.063c1.75,1.916 3.354,3.583 4.812,5c1.459,1.416 3.042,2.52 4.75,3.312c1.709,0.792 3.688,1.188 5.938,1.188l-0,1.25l-3.875,-0c-4.584,-0 -8.354,-0.584 -11.313,-1.75c-2.958,-1.167 -5.354,-2.605 -7.187,-4.313c-1.834,-1.708 -3.417,-3.354 -4.75,-4.937c-0.334,-0.417 -1.104,-1.48 -2.313,-3.188c-1.208,-1.708 -2.521,-3.562 -3.937,-5.562c-1.417,-2 -2.709,-3.813 -3.875,-5.438c-1.167,-1.625 -1.875,-2.604 -2.125,-2.937c-1.667,-2.167 -3.584,-4.105 -5.75,-5.813c-2.167,-1.708 -4.459,-2.562 -6.875,-2.562l-0,-1.25c-0,-0 0.666,0.02 2,0.062c1.333,0.042 3.041,0.021 5.125,-0.062c2.333,-0.084 4.666,-0.271 7,-0.563c2.333,-0.292 4.521,-1.187 6.562,-2.687c2.042,-1.5 3.646,-4 4.813,-7.5c0.333,-0.917 0.583,-2 0.75,-3.25c0.166,-1.25 0.208,-2.542 0.125,-3.875c-0.084,-2.334 -0.521,-4.417 -1.313,-6.25c-0.791,-1.834 -1.916,-3.417 -3.375,-4.75c-1.458,-1.334 -3.187,-2.375 -5.187,-3.125c-2,-0.75 -4.25,-1.167 -6.75,-1.25c-3.917,-0.167 -7.334,-0.209 -10.25,-0.125c-2.917,0.083 -4.375,0.083 -4.375,-0c-0,-0.084 -0.104,-0.438 -0.313,-1.063l-0.937,-2.812Zm1.5,-0l-0,75l-8,-0l-0,-75l8,-0Zm-7.625,67l1.5,8l-10.625,-0l-0,-1.25l1.75,-0c2,-0 3.666,-0.667 5,-2c1.333,-1.334 2.041,-2.917 2.125,-4.75l0.25,-0Zm-0,-59.125l-0.25,-0c-0.084,-1.917 -0.792,-3.5 -2.125,-4.75c-1.334,-1.25 -3,-1.875 -5,-1.875l-1.75,-0l-0,-1.25l10.625,-0l-1.5,7.875Zm7.25,59.125l0.375,-0c0.083,1.833 0.791,3.416 2.125,4.75c1.333,1.333 3,2 5,2l1.625,-0l0.125,1.25l-10.75,-0l1.5,-8Z" style="fill-rule:nonzero;"/><path d="M491.826,61.207l-0,47.25c-0,8.083 2.062,14.458 6.187,19.125c4.125,4.666 9.771,7 16.938,7c7.916,-0 14.146,-2.209 18.687,-6.625c4.542,-4.417 6.813,-10.459 6.813,-18.125l-0,-48.625l5.75,-0l-0,48.625c-0,8.666 -2.771,15.52 -8.313,20.562c-5.541,5.042 -13.146,7.563 -22.812,7.563c-9.584,-0 -17.188,-2.5 -22.813,-7.5c-5.625,-5 -8.437,-11.834 -8.437,-20.5l-0,-48.75l8,-0Zm-7.75,-0l-0,6.625l-0.25,-0c-0.084,-1.5 -0.688,-2.771 -1.813,-3.813c-1.125,-1.042 -2.521,-1.562 -4.187,-1.562l-1.875,-0l-0,-1.25l8.125,-0Zm15.625,-0l-0,1.25l-1.875,-0c-1.584,-0 -2.979,0.52 -4.188,1.562c-1.208,1.042 -1.812,2.313 -1.812,3.813l-0.25,-0l-0,-6.625l8.125,-0Zm41,-0l-0,6.625l-0.25,-0c-0,-1.5 -0.584,-2.771 -1.75,-3.813c-1.167,-1.042 -2.584,-1.562 -4.25,-1.562l-1.875,-0l-0,-1.25l8.125,-0Zm13.375,-0l-0,1.25l-1.875,-0c-1.584,-0 -2.959,0.52 -4.125,1.562c-1.167,1.042 -1.792,2.313 -1.875,3.813l-0.25,-0l-0,-6.625l8.125,-0Z" style="fill-rule:nonzero;"/><path d="M645.076,59.457l1.125,8.125l-29.25,57.625c-0,-0 -0.313,0.708 -0.938,2.125c-0.625,1.416 -1.271,3.104 -1.937,5.062c-0.667,1.958 -1.167,3.813 -1.5,5.563l-1.25,-0l-1.75,-7.875l35.5,-70.625Zm-73.25,68.375l-0,8.375l-13,-0l-0,-1.25l1.875,-0c2.166,-0 4.062,-0.625 5.687,-1.875c1.625,-1.25 2.563,-3 2.813,-5.25l2.625,-0Zm3.75,1.875c-0.084,1.25 0.208,2.437 0.875,3.562c0.666,1.125 1.916,1.729 3.75,1.813l1.75,-0l-0,1.125l-7.125,-0l-0,-6.5l0.75,-0Zm3.375,-70.25l1.25,-0l2.5,7.375l-7.75,69.375l-6.875,-0l10.875,-76.75Zm1.25,-0l34,65.375l-2.875,13.125l-33.5,-64.75l2.375,-13.75Zm66,-0l11.25,76.75l-9.5,-0l-8.125,-62.875l5.25,-13.875l1.125,-0Zm7.5,68.375l2.5,-0c0.333,2.25 1.333,4 3,5.25c1.666,1.25 3.541,1.875 5.625,1.875l1.875,-0l-0,1.25l-13,-0l-0,-8.375Zm-6.625,1.875l0.875,-0l-0,6.5l-7.25,-0l-0,-1.125l1.875,-0c1.916,-0.084 3.187,-0.709 3.812,-1.875c0.625,-1.167 0.854,-2.334 0.688,-3.5Z" style="fill-rule:nonzero;"/><path d="M197.863,210.224l0,-0.122c0.041,-0.102 0.071,-0.254 0.092,-0.458c0.02,-0.203 0.03,-0.386 0.03,-0.549c0,-0.63 -0.086,-1.327 -0.259,-2.089c-0.173,-0.763 -0.504,-1.714 -0.992,-2.852l-3.691,-8.297c-1.138,-0.041 -2.653,-0.061 -4.545,-0.061l-10.782,-0c-1.495,-0 -2.842,0.02 -4.042,0.061l-3.508,8.053c-0.305,0.752 -0.63,1.576 -0.976,2.47c-0.346,0.895 -0.519,1.8 -0.519,2.715c0,0.265 0.021,0.483 0.061,0.656c0.041,0.173 0.082,0.29 0.122,0.351l0,0.122l-6.222,-0l-0,-0.122c0.366,-0.387 0.823,-1.073 1.372,-2.059c0.549,-0.986 1.149,-2.222 1.8,-3.706l17.478,-38.77l2.441,-0l16.563,37.275c0.386,0.874 0.788,1.723 1.205,2.547c0.417,0.824 0.808,1.561 1.174,2.212c0.366,0.65 0.692,1.199 0.976,1.647c0.285,0.447 0.478,0.732 0.58,0.854l-0,0.122l-8.358,-0Zm-19.766,-17.052c1.179,0 2.389,-0.005 3.63,-0.015l7.077,-0.061c1.098,-0.01 2.094,-0.025 2.989,-0.046l-8.572,-19.369l-8.419,19.491l3.295,0Z" style="fill-rule:nonzero;"/><path d="M288.123,178.439c-0,-1.728 -0.021,-3.238 -0.061,-4.529c-0.041,-1.292 -0.102,-2.41 -0.183,-3.356c-0.082,-0.945 -0.173,-1.733 -0.275,-2.364c-0.102,-0.63 -0.214,-1.159 -0.336,-1.586l0,-0.122l5.43,-0l0,0.122c-0.122,0.427 -0.239,0.956 -0.351,1.586c-0.112,0.631 -0.203,1.419 -0.274,2.364c-0.071,0.946 -0.132,2.064 -0.183,3.356c-0.051,1.291 -0.077,2.801 -0.077,4.529l0,16.472c0,2.908 -0.416,5.389 -1.25,7.443c-0.834,2.054 -1.993,3.737 -3.478,5.048c-1.484,1.312 -3.263,2.268 -5.338,2.868c-2.074,0.599 -4.341,0.899 -6.802,0.899c-2.461,0 -4.753,-0.284 -6.878,-0.854c-2.125,-0.569 -3.976,-1.489 -5.552,-2.76c-1.576,-1.271 -2.811,-2.918 -3.706,-4.942c-0.895,-2.023 -1.342,-4.489 -1.342,-7.397l-0,-16.777c-0,-1.728 -0.021,-3.238 -0.061,-4.529c-0.041,-1.292 -0.102,-2.41 -0.183,-3.356c-0.082,-0.945 -0.178,-1.733 -0.29,-2.364c-0.112,-0.63 -0.229,-1.159 -0.351,-1.586l0,-0.122l7.321,-0l-0,0.122c-0.122,0.427 -0.239,0.956 -0.351,1.586c-0.112,0.631 -0.208,1.419 -0.29,2.364c-0.081,0.946 -0.142,2.064 -0.183,3.356c-0.04,1.291 -0.061,2.801 -0.061,4.529l0,17.113c0,2.42 0.361,4.418 1.083,5.994c0.722,1.576 1.673,2.826 2.852,3.752c1.18,0.925 2.522,1.57 4.027,1.936c1.504,0.367 3.04,0.55 4.606,0.55c1.566,-0 3.101,-0.183 4.606,-0.55c1.505,-0.366 2.842,-1.011 4.011,-1.936c1.169,-0.926 2.115,-2.176 2.837,-3.752c0.722,-1.576 1.083,-3.574 1.083,-5.994l-0,-17.113Z" style="fill-rule:nonzero;"/><path d="M354.711,169.105c-0.04,2.278 -0.081,4.484 -0.122,6.619c-0.02,0.916 -0.035,1.851 -0.045,2.807l-0.061,5.475c-0.01,0.844 -0.016,1.591 -0.016,2.242c0,1.363 0.011,3.01 0.031,4.942c0.02,1.932 0.046,3.914 0.076,5.948c0.031,2.033 0.076,3.986 0.137,5.857c0.061,1.87 0.133,3.426 0.214,4.667c0.285,0.04 0.666,0.086 1.144,0.137c0.478,0.051 0.981,0.091 1.51,0.122c0.529,0.03 1.047,0.056 1.555,0.076c0.509,0.02 0.936,0.031 1.282,0.031c1.423,-0 2.882,-0.097 4.377,-0.29c1.494,-0.193 2.938,-0.554 4.331,-1.083c1.393,-0.529 2.705,-1.256 3.935,-2.181c1.231,-0.925 2.308,-2.12 3.234,-3.584c0.925,-1.464 1.652,-3.228 2.181,-5.293c0.528,-2.064 0.793,-4.499 0.793,-7.305c-0,-3.111 -0.377,-5.882 -1.129,-8.312c-0.752,-2.43 -1.856,-4.479 -3.31,-6.147c-1.454,-1.667 -3.253,-2.933 -5.399,-3.797c-2.145,-0.865 -4.611,-1.297 -7.397,-1.297c-0.549,0 -1.169,0.015 -1.86,0.046c-0.692,0.03 -1.378,0.061 -2.059,0.091c-0.682,0.031 -1.322,0.072 -1.922,0.122c-0.6,0.051 -1.093,0.087 -1.48,0.107Zm-6.68,-2.745l2.379,0.107c0.367,0.01 0.661,0.015 0.885,0.015c0.386,-0 1.032,-0.02 1.937,-0.061c0.905,-0.041 1.937,-0.081 3.096,-0.122c1.159,-0.041 2.364,-0.081 3.615,-0.122c1.25,-0.041 2.425,-0.061 3.523,-0.061c2.949,-0 5.755,0.366 8.419,1.098c2.664,0.732 5.002,1.932 7.016,3.599c2.013,1.668 3.609,3.854 4.789,6.559c1.179,2.704 1.769,6.029 1.769,9.974c-0,2.827 -0.31,5.369 -0.93,7.626c-0.621,2.257 -1.49,4.25 -2.609,5.979c-1.118,1.728 -2.455,3.208 -4.011,4.438c-1.555,1.23 -3.274,2.242 -5.155,3.035c-1.881,0.793 -3.889,1.373 -6.024,1.739c-2.135,0.366 -4.342,0.549 -6.619,0.549c-0.814,-0 -1.795,-0.026 -2.944,-0.076c-1.149,-0.051 -2.303,-0.107 -3.462,-0.168c-1.159,-0.061 -2.252,-0.117 -3.279,-0.168c-1.027,-0.051 -1.825,-0.076 -2.395,-0.076l0,-0.122c0.122,-0.427 0.239,-0.956 0.351,-1.586c0.112,-0.631 0.208,-1.414 0.29,-2.349c0.081,-0.936 0.142,-2.049 0.183,-3.34c0.04,-1.292 0.061,-2.801 0.061,-4.53l-0,-19.858c-0,-1.728 -0.021,-3.248 -0.061,-4.56c-0.041,-1.312 -0.102,-2.44 -0.183,-3.386c-0.082,-0.945 -0.178,-1.744 -0.29,-2.394c-0.112,-0.651 -0.229,-1.19 -0.351,-1.617l0,-0.122Z" style="fill-rule:nonzero;"/><path d="M439.755,210.102c0.122,-0.427 0.234,-0.956 0.335,-1.586c0.102,-0.631 0.194,-1.414 0.275,-2.349c0.081,-0.936 0.142,-2.049 0.183,-3.34c0.041,-1.292 0.061,-2.801 0.061,-4.53l0,-19.858c0,-1.728 -0.02,-3.238 -0.061,-4.529c-0.041,-1.292 -0.102,-2.41 -0.183,-3.356c-0.081,-0.945 -0.173,-1.733 -0.275,-2.364c-0.101,-0.63 -0.213,-1.159 -0.335,-1.586l-0,-0.122l7.29,-0l0,0.122c-0.122,0.427 -0.239,0.956 -0.351,1.586c-0.111,0.631 -0.203,1.419 -0.274,2.364c-0.071,0.946 -0.132,2.064 -0.183,3.356c-0.051,1.291 -0.076,2.801 -0.076,4.529l-0,19.858c-0,1.729 0.025,3.238 0.076,4.53c0.051,1.291 0.112,2.404 0.183,3.34c0.071,0.935 0.163,1.718 0.274,2.349c0.112,0.63 0.229,1.159 0.351,1.586l0,0.122l-7.29,-0l-0,-0.122Z" style="fill-rule:nonzero;"/><path d="M522.846,165.75c3.396,-0 6.533,0.554 9.41,1.662c2.878,1.109 5.364,2.664 7.459,4.667c2.094,2.003 3.731,4.408 4.911,7.214c1.179,2.807 1.769,5.908 1.769,9.304c-0,1.932 -0.224,3.833 -0.671,5.704c-0.448,1.871 -1.104,3.64 -1.968,5.308c-0.864,1.667 -1.927,3.208 -3.187,4.621c-1.261,1.413 -2.7,2.633 -4.317,3.66c-1.616,1.027 -3.401,1.831 -5.353,2.41c-1.952,0.58 -4.057,0.869 -6.314,0.869c-3.396,0 -6.533,-0.544 -9.41,-1.631c-2.878,-1.088 -5.364,-2.629 -7.459,-4.622c-2.094,-1.993 -3.731,-4.387 -4.911,-7.183c-1.179,-2.796 -1.769,-5.903 -1.769,-9.319c0,-1.932 0.224,-3.833 0.671,-5.704c0.448,-1.871 1.104,-3.65 1.968,-5.338c0.864,-1.688 1.921,-3.239 3.172,-4.652c1.251,-1.413 2.684,-2.639 4.301,-3.676c1.617,-1.037 3.406,-1.845 5.369,-2.425c1.962,-0.579 4.072,-0.869 6.329,-0.869Zm1.739,42.674c2.257,0 4.321,-0.407 6.192,-1.22c1.871,-0.813 3.482,-1.993 4.835,-3.538c1.352,-1.546 2.405,-3.432 3.157,-5.659c0.752,-2.227 1.129,-4.753 1.129,-7.58c-0,-3.132 -0.361,-6.034 -1.083,-8.709c-0.722,-2.674 -1.795,-4.992 -3.218,-6.954c-1.424,-1.963 -3.198,-3.498 -5.323,-4.606c-2.125,-1.109 -4.601,-1.663 -7.428,-1.663c-2.257,0 -4.321,0.402 -6.192,1.205c-1.871,0.803 -3.483,1.968 -4.835,3.493c-1.352,1.525 -2.405,3.396 -3.157,5.612c-0.752,2.217 -1.129,4.739 -1.129,7.565c0,3.112 0.356,6.014 1.068,8.709c0.712,2.694 1.779,5.028 3.203,7c1.423,1.973 3.203,3.524 5.338,4.652c2.135,1.129 4.616,1.693 7.443,1.693Z" style="fill-rule:nonzero;"/></g></svg>