<?xml version="1.0" encoding="UTF-8" standalone="no"?>
<!DOCTYPE svg PUBLIC "-//W3C//DTD SVG 1.1//EN" "http://www.w3.org/Graphics/SVG/1.1/DTD/svg11.dtd">
<svg width="100%" height="100%" viewBox="0 0 670 194" version="1.1" xmlns="http://www.w3.org/2000/svg" xmlns:xlink="http://www.w3.org/1999/xlink" xml:space="preserve" xmlns:serif="http://www.serif.com/" style="fill-rule:evenodd;clip-rule:evenodd;stroke-linejoin:round;stroke-miterlimit:2;">
    <g transform="matrix(1,0,0,1,-148,-2116)">
        <g transform="matrix(0.645631,0,0,0.645631,-434.931,1922.51)">
            <g transform="matrix(193.609,0,0,193.609,935.336,443.613)">
                <path d="M0.191,-0.6L0.191,-0L0.127,-0L0.127,-0.6L0.191,-0.6ZM0.46,-0.031L0.458,-0L0.189,-0L0.189,-0.031L0.46,-0.031ZM0.413,-0.315L0.413,-0.285L0.189,-0.285L0.189,-0.315L0.413,-0.315ZM0.459,-0.6L0.459,-0.569L0.189,-0.569L0.189,-0.6L0.459,-0.6ZM0.516,-0.143L0.461,-0L0.309,-0L0.343,-0.031C0.376,-0.031 0.403,-0.036 0.424,-0.046C0.444,-0.055 0.46,-0.069 0.473,-0.086C0.486,-0.102 0.497,-0.122 0.506,-0.143L0.516,-0.143ZM0.413,-0.287L0.413,-0.23L0.402,-0.23L0.402,-0.243C0.402,-0.254 0.399,-0.264 0.392,-0.273C0.385,-0.281 0.375,-0.285 0.361,-0.285L0.361,-0.287L0.413,-0.287ZM0.413,-0.37L0.413,-0.313L0.361,-0.313L0.361,-0.315C0.375,-0.315 0.385,-0.319 0.392,-0.328C0.399,-0.336 0.402,-0.346 0.402,-0.357L0.402,-0.37L0.413,-0.37ZM0.459,-0.572L0.459,-0.503L0.448,-0.503L0.448,-0.518C0.448,-0.532 0.444,-0.544 0.435,-0.554C0.426,-0.564 0.413,-0.569 0.398,-0.569L0.398,-0.572L0.459,-0.572ZM0.459,-0.616L0.459,-0.59L0.345,-0.6C0.366,-0.6 0.388,-0.602 0.411,-0.606C0.434,-0.609 0.45,-0.613 0.459,-0.616ZM0.129,-0.064L0.142,-0L0.055,-0L0.055,-0.01L0.069,-0.01C0.086,-0.01 0.099,-0.015 0.11,-0.026C0.121,-0.037 0.126,-0.049 0.127,-0.064L0.129,-0.064ZM0.129,-0.537L0.127,-0.537C0.126,-0.552 0.121,-0.565 0.11,-0.575C0.099,-0.585 0.086,-0.59 0.069,-0.59L0.055,-0.59L0.055,-0.6L0.142,-0.6L0.129,-0.537Z" style="fill:white;fill-rule:nonzero;"/>
            </g>
            <g transform="matrix(193.609,0,0,193.609,1039.11,443.613)">
                <path d="M0.191,-0.6L0.191,-0L0.127,-0L0.127,-0.6L0.191,-0.6ZM0.46,-0.031L0.458,-0L0.189,-0L0.189,-0.031L0.46,-0.031ZM0.516,-0.143L0.461,-0L0.309,-0L0.343,-0.031C0.376,-0.031 0.403,-0.036 0.424,-0.046C0.444,-0.055 0.46,-0.069 0.473,-0.086C0.486,-0.102 0.497,-0.122 0.506,-0.143L0.516,-0.143ZM0.129,-0.064L0.142,-0L0.055,-0L0.055,-0.01L0.069,-0.01C0.086,-0.01 0.099,-0.015 0.11,-0.026C0.121,-0.037 0.126,-0.049 0.127,-0.064L0.129,-0.064ZM0.188,-0.536L0.188,-0.6L0.262,-0.6L0.262,-0.59L0.25,-0.59C0.234,-0.59 0.22,-0.585 0.209,-0.575C0.197,-0.564 0.191,-0.551 0.191,-0.536L0.188,-0.536ZM0.129,-0.536L0.127,-0.536C0.126,-0.551 0.12,-0.564 0.109,-0.575C0.098,-0.585 0.084,-0.59 0.067,-0.59L0.055,-0.59L0.055,-0.6L0.129,-0.6L0.129,-0.536Z" style="fill:white;fill-rule:nonzero;"/>
            </g>
            <g transform="matrix(193.609,0,0,193.609,1138.24,443.613)">
                <path d="M0.191,-0.6L0.191,-0L0.127,-0L0.127,-0.6L0.191,-0.6ZM0.46,-0.031L0.458,-0L0.189,-0L0.189,-0.031L0.46,-0.031ZM0.413,-0.315L0.413,-0.285L0.189,-0.285L0.189,-0.315L0.413,-0.315ZM0.459,-0.6L0.459,-0.569L0.189,-0.569L0.189,-0.6L0.459,-0.6ZM0.516,-0.143L0.461,-0L0.309,-0L0.343,-0.031C0.376,-0.031 0.403,-0.036 0.424,-0.046C0.444,-0.055 0.46,-0.069 0.473,-0.086C0.486,-0.102 0.497,-0.122 0.506,-0.143L0.516,-0.143ZM0.413,-0.287L0.413,-0.23L0.402,-0.23L0.402,-0.243C0.402,-0.254 0.399,-0.264 0.392,-0.273C0.385,-0.281 0.375,-0.285 0.361,-0.285L0.361,-0.287L0.413,-0.287ZM0.413,-0.37L0.413,-0.313L0.361,-0.313L0.361,-0.315C0.375,-0.315 0.385,-0.319 0.392,-0.328C0.399,-0.336 0.402,-0.346 0.402,-0.357L0.402,-0.37L0.413,-0.37ZM0.459,-0.572L0.459,-0.503L0.448,-0.503L0.448,-0.518C0.448,-0.532 0.444,-0.544 0.435,-0.554C0.426,-0.564 0.413,-0.569 0.398,-0.569L0.398,-0.572L0.459,-0.572ZM0.459,-0.616L0.459,-0.59L0.345,-0.6C0.366,-0.6 0.388,-0.602 0.411,-0.606C0.434,-0.609 0.45,-0.613 0.459,-0.616ZM0.129,-0.064L0.142,-0L0.055,-0L0.055,-0.01L0.069,-0.01C0.086,-0.01 0.099,-0.015 0.11,-0.026C0.121,-0.037 0.126,-0.049 0.127,-0.064L0.129,-0.064ZM0.129,-0.537L0.127,-0.537C0.126,-0.552 0.121,-0.565 0.11,-0.575C0.099,-0.585 0.086,-0.59 0.069,-0.59L0.055,-0.59L0.055,-0.6L0.142,-0.6L0.129,-0.537Z" style="fill:white;fill-rule:nonzero;"/>
            </g>
            <g transform="matrix(193.609,0,0,193.609,1243.95,443.613)">
                <path d="M0.666,-0.252L0.655,-0.115C0.638,-0.088 0.615,-0.065 0.587,-0.046C0.559,-0.027 0.527,-0.012 0.492,-0.002C0.457,0.009 0.419,0.014 0.38,0.014C0.313,0.013 0.254,0 0.204,-0.025C0.155,-0.05 0.117,-0.086 0.09,-0.133C0.063,-0.18 0.05,-0.235 0.05,-0.3C0.05,-0.365 0.063,-0.421 0.09,-0.468C0.117,-0.515 0.155,-0.551 0.204,-0.576C0.254,-0.601 0.313,-0.614 0.38,-0.614C0.421,-0.614 0.463,-0.609 0.505,-0.598C0.547,-0.587 0.583,-0.572 0.614,-0.553L0.636,-0.412L0.627,-0.412C0.612,-0.473 0.583,-0.517 0.539,-0.544C0.494,-0.571 0.441,-0.584 0.379,-0.584C0.326,-0.584 0.281,-0.573 0.243,-0.55C0.204,-0.527 0.174,-0.494 0.154,-0.452C0.133,-0.409 0.122,-0.359 0.122,-0.3C0.122,-0.243 0.133,-0.193 0.154,-0.151C0.174,-0.108 0.204,-0.076 0.243,-0.053C0.282,-0.029 0.327,-0.018 0.38,-0.017C0.43,-0.017 0.475,-0.025 0.516,-0.042C0.556,-0.058 0.589,-0.083 0.614,-0.118C0.639,-0.153 0.654,-0.197 0.657,-0.252L0.666,-0.252Z" style="fill:white;fill-rule:nonzero;"/>
            </g>
            <g transform="matrix(193.609,0,0,193.609,1380.44,443.613)">
                <path d="M0.322,-0.597L0.322,-0L0.257,-0L0.257,-0.597L0.322,-0.597ZM0.564,-0.601L0.564,-0.571L0.015,-0.571L0.015,-0.601L0.564,-0.601ZM0.564,-0.573L0.564,-0.504L0.553,-0.504L0.553,-0.52C0.553,-0.534 0.549,-0.546 0.54,-0.556C0.531,-0.565 0.518,-0.57 0.503,-0.571L0.503,-0.573L0.564,-0.573ZM0.564,-0.617L0.564,-0.591L0.452,-0.601C0.465,-0.601 0.48,-0.602 0.495,-0.604C0.509,-0.605 0.523,-0.607 0.536,-0.61C0.549,-0.613 0.558,-0.615 0.564,-0.617ZM0.259,-0.064L0.259,-0L0.186,-0L0.186,-0.01L0.198,-0.01C0.214,-0.01 0.228,-0.015 0.239,-0.026C0.25,-0.037 0.256,-0.049 0.257,-0.064L0.259,-0.064ZM0.319,-0.064L0.322,-0.064C0.323,-0.049 0.329,-0.037 0.34,-0.026C0.351,-0.015 0.365,-0.01 0.381,-0.01L0.392,-0.01L0.392,-0L0.319,-0L0.319,-0.064ZM0.076,-0.573L0.076,-0.571C0.061,-0.57 0.049,-0.565 0.04,-0.556C0.031,-0.546 0.026,-0.534 0.026,-0.52L0.026,-0.504L0.015,-0.504L0.015,-0.573L0.076,-0.573ZM0.015,-0.617C0.021,-0.615 0.03,-0.613 0.043,-0.61C0.055,-0.607 0.069,-0.605 0.084,-0.604C0.099,-0.602 0.114,-0.601 0.127,-0.601L0.015,-0.591L0.015,-0.617Z" style="fill:white;fill-rule:nonzero;"/>
            </g>
            <g transform="matrix(193.609,0,0,193.609,1492.35,443.613)">
                <path d="M0.177,-0.6L0.306,-0.6C0.337,-0.6 0.366,-0.596 0.391,-0.589C0.416,-0.582 0.437,-0.571 0.455,-0.557C0.472,-0.543 0.486,-0.526 0.495,-0.506C0.504,-0.486 0.509,-0.463 0.509,-0.438C0.509,-0.41 0.502,-0.384 0.489,-0.36C0.476,-0.336 0.457,-0.316 0.434,-0.301C0.41,-0.286 0.383,-0.276 0.353,-0.273C0.364,-0.268 0.378,-0.258 0.393,-0.242C0.407,-0.226 0.42,-0.21 0.431,-0.195C0.431,-0.195 0.435,-0.189 0.444,-0.178C0.453,-0.166 0.464,-0.152 0.477,-0.135C0.491,-0.117 0.505,-0.101 0.518,-0.086C0.532,-0.071 0.545,-0.057 0.557,-0.046C0.568,-0.035 0.581,-0.026 0.595,-0.02C0.608,-0.013 0.624,-0.01 0.642,-0.01L0.642,-0L0.611,-0C0.574,-0 0.544,-0.005 0.521,-0.014C0.497,-0.023 0.478,-0.035 0.463,-0.049C0.448,-0.062 0.436,-0.075 0.425,-0.088C0.422,-0.091 0.416,-0.1 0.406,-0.114C0.397,-0.127 0.386,-0.142 0.375,-0.158C0.364,-0.174 0.353,-0.189 0.344,-0.202C0.335,-0.215 0.329,-0.222 0.327,-0.225C0.314,-0.242 0.298,-0.258 0.281,-0.272C0.264,-0.285 0.245,-0.292 0.226,-0.292L0.226,-0.302C0.226,-0.302 0.231,-0.302 0.242,-0.302C0.253,-0.301 0.266,-0.301 0.283,-0.302C0.302,-0.303 0.32,-0.304 0.339,-0.307C0.358,-0.309 0.375,-0.316 0.392,-0.328C0.408,-0.34 0.421,-0.36 0.43,-0.388C0.433,-0.395 0.435,-0.404 0.436,-0.414C0.437,-0.424 0.438,-0.434 0.437,-0.445C0.436,-0.464 0.433,-0.48 0.427,-0.495C0.42,-0.51 0.411,-0.522 0.4,-0.533C0.388,-0.544 0.374,-0.552 0.358,-0.558C0.342,-0.564 0.324,-0.567 0.304,-0.568C0.273,-0.569 0.245,-0.57 0.222,-0.569C0.199,-0.568 0.187,-0.568 0.187,-0.569C0.187,-0.57 0.186,-0.573 0.185,-0.578L0.177,-0.6ZM0.189,-0.6L0.189,-0L0.125,-0L0.125,-0.6L0.189,-0.6ZM0.128,-0.064L0.14,-0L0.055,-0L0.055,-0.01L0.069,-0.01C0.085,-0.01 0.098,-0.015 0.109,-0.026C0.12,-0.037 0.125,-0.049 0.126,-0.064L0.128,-0.064ZM0.128,-0.537L0.126,-0.537C0.125,-0.552 0.12,-0.565 0.109,-0.575C0.098,-0.585 0.085,-0.59 0.069,-0.59L0.055,-0.59L0.055,-0.6L0.14,-0.6L0.128,-0.537ZM0.186,-0.064L0.189,-0.064C0.19,-0.049 0.195,-0.037 0.206,-0.026C0.217,-0.015 0.23,-0.01 0.246,-0.01L0.259,-0.01L0.26,-0L0.174,-0L0.186,-0.064Z" style="fill:white;fill-rule:nonzero;"/>
            </g>
            <g transform="matrix(193.609,0,0,193.609,1609.87,443.613)">
                <path d="M0.167,-0.6L0.167,-0.222C0.167,-0.157 0.184,-0.106 0.217,-0.069C0.25,-0.032 0.295,-0.013 0.352,-0.013C0.415,-0.013 0.465,-0.031 0.501,-0.066C0.538,-0.101 0.556,-0.15 0.556,-0.211L0.556,-0.6L0.602,-0.6L0.602,-0.211C0.602,-0.142 0.58,-0.087 0.536,-0.047C0.491,-0.006 0.43,0.014 0.353,0.014C0.276,0.014 0.216,-0.006 0.171,-0.046C0.126,-0.086 0.103,-0.141 0.103,-0.21L0.103,-0.6L0.167,-0.6ZM0.105,-0.6L0.105,-0.547L0.103,-0.547C0.102,-0.559 0.098,-0.569 0.089,-0.578C0.08,-0.586 0.068,-0.59 0.055,-0.59L0.04,-0.59L0.04,-0.6L0.105,-0.6ZM0.23,-0.6L0.23,-0.59L0.215,-0.59C0.202,-0.59 0.191,-0.586 0.182,-0.578C0.172,-0.569 0.167,-0.559 0.167,-0.547L0.165,-0.547L0.165,-0.6L0.23,-0.6ZM0.558,-0.6L0.558,-0.547L0.556,-0.547C0.556,-0.559 0.551,-0.569 0.542,-0.578C0.533,-0.586 0.521,-0.59 0.508,-0.59L0.493,-0.59L0.493,-0.6L0.558,-0.6ZM0.665,-0.6L0.665,-0.59L0.65,-0.59C0.637,-0.59 0.626,-0.586 0.617,-0.578C0.608,-0.569 0.603,-0.559 0.602,-0.547L0.6,-0.547L0.6,-0.6L0.665,-0.6Z" style="fill:white;fill-rule:nonzero;"/>
            </g>
            <g transform="matrix(193.609,0,0,193.609,1744.43,443.613)">
                <path d="M0.698,-0.614L0.707,-0.549L0.473,-0.088C0.473,-0.088 0.47,-0.082 0.466,-0.071C0.461,-0.06 0.455,-0.046 0.45,-0.031C0.445,-0.015 0.441,-0 0.438,0.014L0.428,0.014L0.414,-0.049L0.698,-0.614ZM0.112,-0.067L0.112,-0L0.008,-0L0.008,-0.01L0.023,-0.01C0.04,-0.01 0.056,-0.015 0.069,-0.025C0.082,-0.035 0.089,-0.049 0.091,-0.067L0.112,-0.067ZM0.142,-0.052C0.141,-0.042 0.144,-0.033 0.149,-0.024C0.154,-0.015 0.164,-0.01 0.179,-0.009L0.193,-0.009L0.193,-0L0.136,-0L0.136,-0.052L0.142,-0.052ZM0.169,-0.614L0.179,-0.614L0.199,-0.555L0.137,-0L0.082,-0L0.169,-0.614ZM0.179,-0.614L0.451,-0.091L0.428,0.014L0.16,-0.504L0.179,-0.614ZM0.707,-0.614L0.797,-0L0.721,-0L0.656,-0.503L0.698,-0.614L0.707,-0.614ZM0.767,-0.067L0.787,-0.067C0.79,-0.049 0.798,-0.035 0.811,-0.025C0.824,-0.015 0.839,-0.01 0.856,-0.01L0.871,-0.01L0.871,-0L0.767,-0L0.767,-0.067ZM0.714,-0.052L0.721,-0.052L0.721,-0L0.663,-0L0.663,-0.009L0.678,-0.009C0.693,-0.01 0.704,-0.015 0.709,-0.024C0.714,-0.033 0.715,-0.043 0.714,-0.052Z" style="fill:white;fill-rule:nonzero;"/>
            </g>
        </g>
        <g transform="matrix(0.645631,0,0,0.645631,-307.14,1996.52)">
            <g transform="matrix(96.7595,0,0,96.7595,935.336,443.613)">
                <path d="M0.554,-0L0.554,-0.002C0.555,-0.004 0.555,-0.006 0.556,-0.009C0.556,-0.013 0.556,-0.015 0.556,-0.018C0.556,-0.028 0.555,-0.039 0.552,-0.052C0.549,-0.064 0.544,-0.079 0.536,-0.097L0.477,-0.23C0.459,-0.231 0.435,-0.231 0.404,-0.231L0.232,-0.231C0.208,-0.231 0.186,-0.231 0.167,-0.23L0.111,-0.101C0.106,-0.089 0.101,-0.076 0.095,-0.062C0.09,-0.047 0.087,-0.033 0.087,-0.018C0.087,-0.014 0.087,-0.01 0.088,-0.008C0.089,-0.005 0.089,-0.003 0.09,-0.002L0.09,-0L-0.01,-0L-0.01,-0.002C-0.004,-0.008 0.003,-0.019 0.012,-0.035C0.021,-0.051 0.031,-0.07 0.041,-0.094L0.321,-0.715L0.36,-0.715L0.625,-0.118C0.631,-0.104 0.638,-0.091 0.644,-0.077C0.651,-0.064 0.657,-0.052 0.663,-0.042C0.669,-0.032 0.674,-0.023 0.679,-0.016C0.683,-0.008 0.686,-0.004 0.688,-0.002L0.688,-0L0.554,-0ZM0.238,-0.273C0.257,-0.273 0.276,-0.273 0.296,-0.273L0.409,-0.274C0.427,-0.274 0.443,-0.275 0.457,-0.275L0.32,-0.585L0.185,-0.273L0.238,-0.273Z" style="fill:white;fill-rule:nonzero;"/>
            </g>
            <g transform="matrix(96.7595,0,0,96.7595,1073.53,443.613)">
                <path d="M0.571,-0.509C0.571,-0.536 0.57,-0.561 0.57,-0.581C0.569,-0.602 0.568,-0.62 0.567,-0.635C0.566,-0.65 0.564,-0.663 0.563,-0.673C0.561,-0.683 0.559,-0.691 0.557,-0.698L0.557,-0.7L0.644,-0.7L0.644,-0.698C0.642,-0.691 0.64,-0.683 0.638,-0.673C0.637,-0.663 0.635,-0.65 0.634,-0.635C0.633,-0.62 0.632,-0.602 0.631,-0.581C0.63,-0.561 0.63,-0.536 0.63,-0.509L0.63,-0.245C0.63,-0.199 0.623,-0.159 0.61,-0.126C0.597,-0.093 0.578,-0.066 0.554,-0.045C0.53,-0.024 0.502,-0.009 0.469,0.001C0.436,0.01 0.399,0.015 0.36,0.015C0.32,0.015 0.284,0.011 0.25,0.001C0.216,-0.008 0.186,-0.022 0.161,-0.043C0.136,-0.063 0.116,-0.089 0.102,-0.122C0.087,-0.154 0.08,-0.194 0.08,-0.24L0.08,-0.509C0.08,-0.536 0.08,-0.561 0.079,-0.581C0.078,-0.602 0.077,-0.62 0.076,-0.635C0.075,-0.65 0.073,-0.663 0.072,-0.673C0.07,-0.683 0.068,-0.691 0.066,-0.698L0.066,-0.7L0.183,-0.7L0.183,-0.698C0.181,-0.691 0.179,-0.683 0.177,-0.673C0.176,-0.663 0.174,-0.65 0.173,-0.635C0.172,-0.62 0.171,-0.602 0.17,-0.581C0.169,-0.561 0.169,-0.536 0.169,-0.509L0.169,-0.235C0.169,-0.196 0.175,-0.164 0.186,-0.139C0.198,-0.114 0.213,-0.094 0.232,-0.079C0.251,-0.064 0.272,-0.054 0.296,-0.048C0.32,-0.042 0.345,-0.039 0.37,-0.039C0.395,-0.039 0.42,-0.042 0.444,-0.048C0.468,-0.054 0.489,-0.064 0.508,-0.079C0.527,-0.094 0.542,-0.114 0.553,-0.139C0.565,-0.164 0.571,-0.196 0.571,-0.235L0.571,-0.509Z" style="fill:white;fill-rule:nonzero;"/>
            </g>
            <g transform="matrix(96.7595,0,0,96.7595,1214.8,443.613)">
                <path d="M0.177,-0.658C0.176,-0.622 0.175,-0.586 0.175,-0.552C0.174,-0.538 0.174,-0.523 0.174,-0.507L0.173,-0.42C0.173,-0.406 0.173,-0.394 0.173,-0.384C0.173,-0.362 0.173,-0.336 0.173,-0.305C0.174,-0.274 0.174,-0.242 0.175,-0.209C0.175,-0.177 0.176,-0.146 0.177,-0.116C0.178,-0.086 0.179,-0.061 0.18,-0.041C0.185,-0.04 0.191,-0.04 0.198,-0.039C0.206,-0.038 0.214,-0.037 0.223,-0.037C0.231,-0.036 0.239,-0.036 0.248,-0.036C0.256,-0.035 0.263,-0.035 0.268,-0.035C0.291,-0.035 0.314,-0.037 0.338,-0.04C0.362,-0.043 0.385,-0.049 0.407,-0.057C0.43,-0.066 0.451,-0.077 0.47,-0.092C0.49,-0.107 0.507,-0.126 0.522,-0.149C0.537,-0.173 0.549,-0.201 0.557,-0.234C0.566,-0.267 0.57,-0.306 0.57,-0.351C0.57,-0.401 0.564,-0.445 0.552,-0.484C0.54,-0.523 0.522,-0.556 0.499,-0.583C0.476,-0.609 0.447,-0.629 0.412,-0.643C0.378,-0.657 0.339,-0.664 0.294,-0.664C0.285,-0.664 0.275,-0.664 0.264,-0.663C0.253,-0.663 0.242,-0.662 0.231,-0.662C0.22,-0.661 0.21,-0.661 0.2,-0.66C0.191,-0.659 0.183,-0.659 0.177,-0.658ZM0.07,-0.702L0.108,-0.7C0.114,-0.7 0.118,-0.7 0.122,-0.7C0.128,-0.7 0.139,-0.701 0.153,-0.701C0.168,-0.702 0.184,-0.702 0.203,-0.703C0.221,-0.704 0.24,-0.704 0.26,-0.705C0.281,-0.706 0.299,-0.706 0.317,-0.706C0.364,-0.706 0.409,-0.7 0.452,-0.688C0.494,-0.677 0.532,-0.658 0.564,-0.631C0.596,-0.604 0.622,-0.569 0.641,-0.526C0.66,-0.483 0.669,-0.429 0.669,-0.366C0.669,-0.321 0.664,-0.28 0.654,-0.244C0.644,-0.208 0.63,-0.176 0.612,-0.148C0.594,-0.121 0.573,-0.097 0.548,-0.077C0.523,-0.058 0.496,-0.042 0.466,-0.029C0.435,-0.016 0.403,-0.007 0.369,-0.001C0.335,0.005 0.3,0.008 0.263,0.008C0.25,0.008 0.234,0.007 0.216,0.007C0.198,0.006 0.179,0.005 0.161,0.004C0.142,0.003 0.125,0.002 0.108,0.001C0.092,0 0.079,-0 0.07,-0L0.07,-0.002C0.072,-0.009 0.074,-0.017 0.075,-0.027C0.077,-0.037 0.079,-0.05 0.08,-0.065C0.081,-0.08 0.082,-0.098 0.083,-0.118C0.084,-0.139 0.084,-0.163 0.084,-0.191L0.084,-0.509C0.084,-0.536 0.084,-0.561 0.083,-0.582C0.082,-0.603 0.081,-0.621 0.08,-0.636C0.079,-0.651 0.077,-0.664 0.075,-0.674C0.074,-0.685 0.072,-0.693 0.07,-0.7L0.07,-0.702Z" style="fill:white;fill-rule:nonzero;"/>
            </g>
            <g transform="matrix(96.7595,0,0,96.7595,1356.44,443.613)">
                <path d="M0.074,-0.002C0.076,-0.009 0.078,-0.017 0.08,-0.027C0.081,-0.037 0.083,-0.05 0.084,-0.065C0.085,-0.08 0.086,-0.098 0.087,-0.118C0.088,-0.139 0.088,-0.163 0.088,-0.191L0.088,-0.509C0.088,-0.536 0.088,-0.561 0.087,-0.581C0.086,-0.602 0.085,-0.62 0.084,-0.635C0.083,-0.65 0.081,-0.663 0.08,-0.673C0.078,-0.683 0.076,-0.691 0.074,-0.698L0.074,-0.7L0.191,-0.7L0.191,-0.698C0.189,-0.691 0.187,-0.683 0.185,-0.673C0.184,-0.663 0.182,-0.65 0.181,-0.635C0.18,-0.62 0.179,-0.602 0.178,-0.581C0.177,-0.561 0.177,-0.536 0.177,-0.509L0.177,-0.191C0.177,-0.163 0.177,-0.139 0.178,-0.118C0.179,-0.098 0.18,-0.08 0.181,-0.065C0.182,-0.05 0.184,-0.037 0.185,-0.027C0.187,-0.017 0.189,-0.009 0.191,-0.002L0.191,-0L0.074,-0L0.074,-0.002Z" style="fill:white;fill-rule:nonzero;"/>
            </g>
            <g transform="matrix(96.7595,0,0,96.7595,1454.66,443.613)">
                <path d="M0.389,-0.712C0.444,-0.712 0.494,-0.703 0.54,-0.685C0.586,-0.668 0.626,-0.643 0.659,-0.611C0.693,-0.579 0.719,-0.54 0.738,-0.495C0.757,-0.45 0.766,-0.401 0.766,-0.346C0.766,-0.315 0.763,-0.285 0.755,-0.255C0.748,-0.225 0.738,-0.197 0.724,-0.17C0.71,-0.143 0.693,-0.119 0.673,-0.096C0.653,-0.073 0.63,-0.054 0.604,-0.037C0.578,-0.021 0.549,-0.008 0.518,0.001C0.487,0.01 0.453,0.015 0.417,0.015C0.363,0.015 0.312,0.006 0.266,-0.011C0.22,-0.028 0.181,-0.053 0.147,-0.085C0.113,-0.117 0.087,-0.155 0.068,-0.2C0.049,-0.245 0.04,-0.294 0.04,-0.349C0.04,-0.38 0.044,-0.41 0.051,-0.44C0.058,-0.47 0.068,-0.499 0.082,-0.526C0.096,-0.553 0.113,-0.578 0.133,-0.6C0.153,-0.623 0.176,-0.643 0.202,-0.659C0.228,-0.676 0.256,-0.689 0.288,-0.698C0.319,-0.707 0.353,-0.712 0.389,-0.712ZM0.417,-0.029C0.453,-0.029 0.486,-0.035 0.516,-0.048C0.546,-0.061 0.572,-0.08 0.594,-0.105C0.615,-0.13 0.632,-0.16 0.644,-0.196C0.656,-0.231 0.662,-0.272 0.662,-0.317C0.662,-0.367 0.656,-0.413 0.645,-0.456C0.633,-0.499 0.616,-0.536 0.593,-0.568C0.57,-0.599 0.542,-0.624 0.508,-0.641C0.474,-0.659 0.434,-0.668 0.389,-0.668C0.353,-0.668 0.32,-0.662 0.29,-0.649C0.26,-0.636 0.234,-0.617 0.213,-0.593C0.191,-0.568 0.174,-0.538 0.162,-0.503C0.15,-0.467 0.144,-0.427 0.144,-0.382C0.144,-0.332 0.15,-0.286 0.161,-0.242C0.173,-0.199 0.19,-0.162 0.212,-0.13C0.235,-0.099 0.264,-0.074 0.298,-0.056C0.332,-0.038 0.372,-0.029 0.417,-0.029Z" style="fill:white;fill-rule:nonzero;"/>
            </g>
        </g>
    </g>
</svg>
