<?xml version="1.0" encoding="UTF-8" standalone="no"?>
<!DOCTYPE svg PUBLIC "-//W3C//DTD SVG 1.1//EN" "http://www.w3.org/Graphics/SVG/1.1/DTD/svg11.dtd">
<svg width="100%" height="100%" viewBox="0 0 208 205" version="1.1" xmlns="http://www.w3.org/2000/svg" xmlns:xlink="http://www.w3.org/1999/xlink" xml:space="preserve" xmlns:serif="http://www.serif.com/" style="fill-rule:evenodd;clip-rule:evenodd;stroke-linecap:round;stroke-linejoin:round;stroke-miterlimit:1.5;">
    <g transform="matrix(1,0,0,1,-79,-2176)">
        <path d="M183.103,2186.76L270.519,2225.05L270.519,2337.45L189.764,2371.58L102.348,2333.28L102.348,2221.72L183.103,2186.76Z" style="fill:white;"/>
        <g transform="matrix(1,0,0,1,43.6933,107.161)">
            <g transform="matrix(1.42896,-0.603992,0,1.42896,-990.05,787.994)">
                <rect x="795.07" y="1290.63" width="56.514" height="78.653" style="fill:none;stroke:rgb(218,97,1);stroke-width:3.64px;"/>
            </g>
            <g transform="matrix(1.42896,-0.603992,0,1.42896,-1077.47,749.697)">
                <path d="M851.584,1290.63L795.07,1290.63L795.07,1369.28" style="fill:none;stroke:rgb(218,97,1);stroke-width:3.64px;"/>
            </g>
            <g transform="matrix(1.42896,0,0,1.42896,-990.05,307.778)">
                <path d="M851.584,1266.74L790.409,1239.94" style="fill:none;stroke:rgb(218,97,1);stroke-width:2.97px;"/>
            </g>
            <g transform="matrix(1.33598,-0.0407328,-0.0407328,1.41111,-894.16,425.158)">
                <path d="M851.584,1266.74L790.409,1239.94" style="fill:none;stroke:rgb(218,97,1);stroke-width:3.19px;stroke-dasharray:3.19,6.37,0,0;"/>
            </g>
            <g transform="matrix(1.28568,-0.0627676,-0.0627676,1.40146,-835.452,482.019)">
                <path d="M851.584,1266.74L790.409,1239.94" style="fill:none;stroke:rgb(218,97,1);stroke-width:3.31px;stroke-dasharray:3.31,6.63,0,0;"/>
            </g>
            <g transform="matrix(1.42896,0,0,1.42896,-1070.81,342.744)">
                <path d="M851.584,1266.74L790.409,1239.94" style="fill:none;stroke:rgb(218,97,1);stroke-width:2.97px;"/>
            </g>
            <g transform="matrix(1.42896,0,0,1.42896,-1070.81,454.303)">
                <path d="M851.584,1266.74L790.409,1239.94" style="fill:none;stroke:rgb(218,97,1);stroke-width:2.97px;"/>
            </g>
            <g transform="matrix(1.42896,0,0,1.42896,-990.05,307.778)">
                <circle cx="823.327" cy="1318.01" r="9.976" style="fill:none;stroke:rgb(218,97,1);stroke-width:2.97px;"/>
            </g>
            <g transform="matrix(1.42896,0,0,1.42896,-1068.19,273.533)">
                <circle cx="823.327" cy="1318.01" r="9.976" style="fill:none;stroke:rgb(218,97,1);stroke-width:2.97px;stroke-dasharray:2.97,5.95,0,0;"/>
            </g>
        </g>
    </g>
</svg>
