<?xml version="1.0" encoding="UTF-8" standalone="no"?>
<!DOCTYPE svg PUBLIC "-//W3C//DTD SVG 1.1//EN" "http://www.w3.org/Graphics/SVG/1.1/DTD/svg11.dtd">
<svg width="100%" height="100%" viewBox="0 0 645 330" version="1.1" xmlns="http://www.w3.org/2000/svg" xmlns:xlink="http://www.w3.org/1999/xlink" xml:space="preserve" xmlns:serif="http://www.serif.com/" style="fill-rule:evenodd;clip-rule:evenodd;stroke-linecap:round;stroke-miterlimit:1.5;">
    <g transform="matrix(1,0,0,1,-1353,-2530)">
        <g>
            <path d="M1636.39,2725.69L1606.68,2742.34L1602.32,2740.29L1602.07,2734.4L1596.69,2737.22L1596.69,2709.81L1636.39,2687.55L1636.39,2725.69Z" style="fill:white;"/>
            <g transform="matrix(0.944676,0,0,0.946237,1209.23,1114.51)">
                <path d="M693.659,1664.47C693.659,1664.47 693.965,1621.08 693.895,1610.14C693.873,1606.74 692.596,1604.41 690.584,1602.98C686.611,1600.16 689.331,1601.48 689.331,1601.48C689.331,1601.48 606.314,1555.21 590.723,1546.52C589.159,1545.65 587.26,1545.63 585.676,1546.46C571.078,1554.14 497.459,1592.88 466.881,1608.96C458.672,1613.28 453.534,1621.79 453.534,1631.05L453.534,1742.76C453.534,1744.66 454.548,1746.4 456.192,1747.35C471.577,1756.16 548.52,1800.24 548.52,1800.24L559.105,1793.28L569.51,1803.5C569.51,1803.5 631.087,1769.76 661.528,1753.12M661.528,1753.12L738.757,1725.16L768.033,1703.52L693.659,1664.47" style="fill:white;"/>
            </g>
            <path d="M1675.98,2535.63L1705.13,2554.47L1705.13,2580.48L1509.13,2684.09L1479.97,2667.05L1479.97,2639.24L1675.98,2535.63Z" style="fill:white;"/>
            <g transform="matrix(0.94678,0,0,0.962661,1206.99,1088.85)">
                <path d="M689.331,1601.48C689.331,1601.48 606.396,1555.26 590.746,1546.53C589.171,1545.65 587.248,1545.63 585.651,1546.47C570.97,1554.2 497.174,1593.03 466.714,1609.05C458.6,1613.32 453.534,1621.64 453.534,1630.69L453.534,1738.12C453.534,1739.97 454.532,1741.68 456.156,1742.61C471.568,1751.44 549.668,1796.19 549.668,1796.19L556.762,1793.38" style="fill:none;stroke:rgb(64,124,191);stroke-width:2.28px;"/>
            </g>
            <g transform="matrix(0.94678,0,0,0.962661,1206.99,1088.85)">
                <path d="M549.676,1729.86C549.676,1729.86 549.968,1698.42 549.676,1686.02C549.471,1677.32 552.993,1670.06 561.343,1665.57C586.134,1652.24 652.833,1615.33 674.063,1603.93C682.662,1599.32 693.83,1600.04 693.895,1610.14C693.965,1621.08 693.905,1695.99 693.905,1695.99" style="fill:none;stroke:rgb(64,124,191);stroke-width:2.28px;"/>
            </g>
            <g transform="matrix(0.863699,0,0,0.878188,1259.38,1232.38)">
                <path d="M549.676,1737.39C549.676,1737.39 549.968,1698.42 549.676,1686.02C549.471,1677.32 552.993,1670.06 561.343,1665.57C586.134,1652.24 652.833,1615.33 674.063,1603.93C682.662,1599.32 693.83,1600.04 693.895,1610.14C693.965,1621.08 693.659,1691.91 693.659,1691.91" style="fill:none;stroke:rgb(64,124,191);stroke-width:2.5px;"/>
            </g>
            <g transform="matrix(0.79455,0,0,0.807879,1302.98,1351.84)">
                <path d="M549.676,1744.13C549.676,1744.13 549.968,1698.42 549.676,1686.02C549.471,1677.32 552.993,1670.06 561.343,1665.57C586.134,1652.24 652.833,1615.33 674.063,1603.93C682.662,1599.32 693.83,1600.04 693.895,1610.14C693.965,1621.08 693.659,1688 693.659,1688" style="fill:none;stroke:rgb(64,124,191);stroke-width:2.72px;"/>
            </g>
            <g transform="matrix(0.724828,0,0,0.736987,1346.94,1472.3)">
                <path d="M549.676,1752.6C549.676,1752.6 549.968,1698.42 549.676,1686.02C549.471,1677.32 552.993,1670.06 561.343,1665.57C586.134,1652.24 652.833,1615.33 674.063,1603.93C682.662,1599.32 693.83,1600.04 693.895,1610.14C693.965,1621.08 693.577,1683.26 693.577,1683.26" style="fill:none;stroke:rgb(64,124,191);stroke-width:2.98px;"/>
            </g>
            <g transform="matrix(0.637786,0,0,0.648485,1401.82,1622.67)">
                <path d="M549.676,1765.76C549.676,1765.76 549.968,1698.42 549.676,1686.02C549.471,1677.32 552.993,1670.06 561.343,1665.57C586.134,1652.24 652.833,1615.33 674.063,1603.93C682.662,1599.32 693.83,1600.04 693.895,1610.14C693.965,1621.08 693.609,1675.98 693.609,1675.98" style="fill:none;stroke:rgb(64,124,191);stroke-width:3.39px;"/>
            </g>
            <g transform="matrix(0.562244,0,0,0.571676,1449.45,1753.18)">
                <path d="M549.676,1780.5C549.676,1780.5 549.968,1698.42 549.676,1686.02C549.471,1677.32 552.993,1670.06 561.343,1665.57C586.134,1652.24 652.833,1615.33 674.063,1603.93C682.662,1599.32 693.83,1600.04 693.895,1610.14C693.965,1621.08 693.659,1667.18 693.659,1667.18" style="fill:none;stroke:rgb(64,124,191);stroke-width:3.84px;"/>
            </g>
            <g transform="matrix(0.497098,0,0,0.505436,1490.52,1865.73)">
                <path d="M549.676,1785.17C549.676,1785.17 549.968,1698.42 549.676,1686.02C549.471,1677.32 552.993,1670.06 561.343,1665.57C586.134,1652.24 652.833,1615.33 674.063,1603.93C682.662,1599.32 693.83,1600.04 693.895,1610.14C693.965,1621.08 693.659,1664.47 693.659,1664.47" style="fill:none;stroke:rgb(64,124,191);stroke-width:4.35px;"/>
            </g>
            <g transform="matrix(0.430183,0,0,0.437399,1532.72,1981.34)">
                <path d="M558.825,1774.39C558.825,1774.39 556.046,1775.6 553.551,1776.69C552.701,1777.06 551.717,1776.99 550.937,1776.49C550.157,1775.99 549.688,1775.13 549.691,1774.22C549.746,1757.63 549.928,1696.71 549.676,1686.02C549.471,1677.32 552.993,1670.06 561.343,1665.57C586.134,1652.24 652.833,1615.33 674.063,1603.93C682.662,1599.32 693.83,1600.04 693.895,1610.14C693.965,1621.08 693.659,1664.47 693.659,1664.47" style="fill:none;stroke:rgb(64,124,191);stroke-width:5.02px;"/>
            </g>
            <g transform="matrix(0.948619,0,0,0.936755,1104.71,1180.69)">
                <path d="M700.514,1655.43C700.514,1655.43 700.567,1646.13 700.456,1641.63C700.354,1637.49 703.21,1633.76 706.095,1632.22C712.063,1629.03 744.52,1610.56 744.52,1610.56L828.777,1662.28L868.962,1640.47L800.385,1596.91L800.385,1571.04L812.366,1563.63L934.387,1639.42L721.744,1752.89L600.113,1683.95L630.673,1665.66L728.406,1719.22L769.819,1695.39L700.514,1655.43Z" style="fill:white;stroke:rgb(64,124,191);stroke-width:2.31px;stroke-linejoin:round;"/>
            </g>
            <g transform="matrix(1.18457,0,0,1.18457,378.72,743.518)">
                <path d="M1211.5,1719.89L1173.8,1698.22" style="fill:none;stroke:rgb(64,124,191);stroke-width:1.84px;stroke-linejoin:round;"/>
            </g>
            <g transform="matrix(1.18457,0,0,1.18457,378.72,743.518)">
                <path d="M1061.7,1646.29L1032.73,1662.94L1032.95,1685.65L1036.62,1687.38L1036.62,1664.24L1061.7,1649.56L1061.7,1646.29Z" style="fill:rgb(190,190,190);stroke:rgb(64,124,191);stroke-width:1.84px;stroke-linejoin:round;"/>
            </g>
            <g transform="matrix(1.18457,0,0,1.18457,368.731,738.395)">
                <path d="M1070.14,1642.18L1032.73,1662.94L1032.95,1685.65L1036.62,1687.38L1036.62,1664.24L1070.14,1645.45L1070.14,1642.18Z" style="fill:rgb(190,190,190);stroke:rgb(64,124,191);stroke-width:1.84px;stroke-linejoin:round;"/>
            </g>
            <g transform="matrix(1.18457,0,0,1.18457,378.72,743.518)">
                <path d="M1095.13,1512.88L929.661,1600.34L929.661,1623.82L954.272,1638.21L1119.74,1550.74L1119.74,1528.78L1095.13,1512.88Z" style="fill:none;stroke:rgb(64,124,191);stroke-width:1.84px;stroke-linejoin:round;"/>
            </g>
            <g transform="matrix(1.18457,0,0,1.18457,378.72,717.055)">
                <path d="M929.661,1623.82L954.272,1638.21L1119.74,1550.74" style="fill:none;stroke:rgb(64,124,191);stroke-width:1.84px;stroke-linejoin:round;"/>
            </g>
            <g transform="matrix(1.18457,0,0,1.18457,378.72,743.518)">
                <path d="M954.272,1615.87L954.272,1638.01" style="fill:none;stroke:rgb(64,124,191);stroke-width:1.84px;stroke-linejoin:round;"/>
            </g>
            <g transform="matrix(1.18457,0,0,1.18457,378.72,743.518)">
                <path d="M1288.1,1677.39L1253.82,1657.5" style="fill:none;stroke:rgb(64,124,191);stroke-width:1.84px;stroke-linejoin:round;"/>
            </g>
            <g transform="matrix(1.18457,0,0,1.18457,378.72,743.518)">
                <path d="M1164.45,1711.43L1182.17,1703.03" style="fill:none;stroke:rgb(64,124,191);stroke-width:1.84px;stroke-linejoin:round;"/>
            </g>
            <g transform="matrix(1.18457,0,0,1.18457,382.614,745.681)">
                <path d="M1164.45,1711.43L1182.17,1703.03" style="fill:none;stroke:rgb(64,124,191);stroke-width:1.84px;stroke-linejoin:round;"/>
            </g>
            <g transform="matrix(1.15502,0.0140069,0.0140069,1.17794,398.193,743.453)">
                <path d="M1164.45,1711.43L1182.17,1703.03" style="fill:none;stroke:rgb(64,124,191);stroke-width:1.85px;stroke-linejoin:round;"/>
            </g>
            <g transform="matrix(1.12802,0.0268016,0.0268016,1.17187,412.812,741.68)">
                <path d="M1164.45,1711.43L1182.17,1703.03" style="fill:none;stroke:rgb(64,124,191);stroke-width:1.85px;stroke-linejoin:round;"/>
            </g>
            <g transform="matrix(1.15418,0.0144041,0.0144041,1.17775,408.341,748.59)">
                <path d="M1164.45,1711.43L1182.17,1703.03" style="fill:none;stroke:rgb(64,124,191);stroke-width:1.85px;stroke-linejoin:round;"/>
            </g>
            <g transform="matrix(1.14912,0.0168031,0.0168031,1.17661,415.155,750.516)">
                <path d="M1164.45,1711.43L1182.17,1703.03" style="fill:none;stroke:rgb(64,124,191);stroke-width:1.85px;stroke-linejoin:round;"/>
            </g>
            <g transform="matrix(1.18457,0,0,1.18457,378.72,743.518)">
                <path d="M1093.44,1700.97L1093.44,1722.37L1190.85,1777.9L1361.13,1688.96L1361.13,1665.5L1190.85,1755.23L1093.44,1700.97Z" style="fill:rgb(190,190,190);stroke:rgb(64,124,191);stroke-width:1.84px;stroke-linejoin:round;"/>
            </g>
            <g transform="matrix(1.18457,0,0,1.18457,378.72,743.518)">
                <path d="M1190.85,1755.23L1190.85,1777.9" style="fill:none;stroke:rgb(64,124,191);stroke-width:1.84px;stroke-linejoin:round;"/>
            </g>
            <g transform="matrix(1.18457,0,0,1.18457,378.72,743.518)">
                <path d="M1229.35,1709.76L1173.85,1678.16L1173.8,1698.22L1211.5,1719.89L1229.35,1709.76Z" style="fill:rgb(190,190,190);stroke:rgb(64,124,191);stroke-width:1.84px;stroke-linejoin:round;"/>
            </g>
            <g transform="matrix(1.18457,0,0,1.18457,378.72,743.518)">
                <path d="M1308.74,1666.32L1253.82,1631.88L1253.82,1657.5L1288.1,1677.39L1308.74,1666.32Z" style="fill:rgb(190,190,190);stroke:rgb(64,124,191);stroke-width:1.84px;stroke-linejoin:round;"/>
            </g>
            <g transform="matrix(1.18457,0,0,1.18457,378.72,743.518)">
                <path d="M1036.62,1687.38L1061.7,1673.32" style="fill:none;stroke:rgb(64,124,191);stroke-width:1.84px;stroke-linejoin:round;"/>
            </g>
            <g transform="matrix(1.18457,0,0,1.18457,368.731,738.395)">
                <path d="M1036.62,1687.38L1041.16,1685" style="fill:none;stroke:rgb(64,124,191);stroke-width:1.84px;stroke-linejoin:round;"/>
            </g>
            <g transform="matrix(1.18457,0,0,1.18457,378.72,743.518)">
                <path d="M1036.62,1664.24L1032.73,1662.94" style="fill:none;stroke:rgb(64,124,191);stroke-width:1.84px;stroke-linejoin:round;"/>
            </g>
            <g transform="matrix(1.18457,0,0,1.18457,368.731,738.395)">
                <path d="M1036.62,1664.24L1032.73,1662.94" style="fill:none;stroke:rgb(64,124,191);stroke-width:1.84px;stroke-linejoin:round;"/>
            </g>
            <g transform="matrix(-1.18457,0,0,1.18457,2924.2,1643.1)">
                <g transform="matrix(-0.844185,0,0,0.844185,1326.39,748.712)">
                    <path d="M236.275,219.187L236.954,205.809L225.845,213.292C229.926,212.158 235.141,215.105 236.275,219.187Z" style="fill:rgb(64,124,191);"/>
                    <path d="M232.239,214.153C218.844,237.856 181.527,303.889 181.527,303.889L158.077,303.889" style="fill:none;stroke:rgb(64,124,191);stroke-width:3.99px;stroke-linejoin:round;"/>
                </g>
            </g>
            <g transform="matrix(-1.17601,-0.14221,-0.14221,1.17601,3060.98,1820.86)">
                <g transform="matrix(-0.83808,-0.101346,-0.101346,0.83808,1359.56,767.409)">
                    <path d="M249.395,228.594L252.197,215.496L240.037,221.113C244.247,220.644 248.926,224.384 249.395,228.594Z" style="fill:rgb(64,124,191);"/>
                    <path d="M246.212,222.982C229.157,244.314 181.527,303.889 181.527,303.889" style="fill:none;stroke:rgb(64,124,191);stroke-width:3.99px;stroke-linejoin:round;"/>
                </g>
            </g>
            <g transform="matrix(1.18457,0,0,1.18457,-86.1649,1641.63)">
                <text x="1220.84px" y="1006.15px" style="font-family:'Candara', sans-serif;font-size:20.833px;stroke:rgb(64,124,191);stroke-width:1.84px;stroke-linecap:butt;stroke-linejoin:round;stroke-miterlimit:2;">GAP SP<tspan x="1284.38px 1297.22px " y="1006.15px 1006.15px ">AC</tspan>ERS</text>
            </g>
        </g>
    </g>
</svg>
