<?xml version="1.0" encoding="UTF-8" standalone="no"?>
<!DOCTYPE svg PUBLIC "-//W3C//DTD SVG 1.1//EN" "http://www.w3.org/Graphics/SVG/1.1/DTD/svg11.dtd">
<svg width="100%" height="100%" viewBox="0 0 353 380" version="1.1" xmlns="http://www.w3.org/2000/svg" xmlns:xlink="http://www.w3.org/1999/xlink" xml:space="preserve" xmlns:serif="http://www.serif.com/" style="fill-rule:evenodd;clip-rule:evenodd;stroke-linecap:round;stroke-linejoin:round;stroke-miterlimit:1.5;">
    <g transform="matrix(1,0,0,1,-2019,-2093)">
        <g transform="matrix(0.687935,0,0,0.687935,1935.29,461.63)">
            <g transform="matrix(0.74577,-0.580815,-0.580815,1.81709,293.12,721.565)">
                <path d="M780.088,1257.21L877.346,1299.82L851.584,1266.74L790.409,1239.94" style="fill:white;"/>
            </g>
            <g transform="matrix(0.988911,-0.474296,-0.474296,1.86376,-48.8655,616.888)">
                <path d="M851.584,1266.74L790.409,1239.94" style="fill:none;"/>
            </g>
            <g transform="matrix(2.07154,0,0,2.07154,-1552.8,-196.47)">
                <path d="M819.426,1327.19C815.856,1325.67 813.351,1322.13 813.351,1318.01C813.351,1312.5 817.821,1308.03 823.327,1308.03C825.008,1308.03 826.593,1308.45 827.984,1309.19" style="fill:white;"/>
            </g>
            <g transform="matrix(2.07154,0,0,2.07154,-3390.87,-368.511)">
                <path d="M1817.97,1507.12L1849.63,1493.74L1849.63,1326.94L1817.97,1340.32L1817.97,1368.05L1761.45,1391.93L1761.45,1364.21L1729.79,1377.6L1729.79,1544.4L1761.45,1531.01L1761.45,1503.25L1817.97,1479.37L1817.97,1507.12Z" style="fill:none;stroke:rgb(218,97,1);stroke-width:2.98px;"/>
            </g>
            <g transform="matrix(1.42896,0,0,1.42896,-1444.13,157.789)">
                <path d="M1319.05,1555.34L1273.14,1574.74L1273.14,1614.93L1210.1,1641.58L1210.1,1657.83L1292.03,1623.2L1292.03,1583.01L1337.94,1563.61L1319.05,1555.34Z" style="fill:white;stroke:rgb(218,97,1);stroke-width:4.32px;"/>
            </g>
            <g transform="matrix(2.07154,0,0,2.07154,-3363.88,-356.696)">
                <path d="M1817.97,1507.12L1849.63,1493.74L1849.63,1326.94L1817.97,1340.32L1817.97,1368.05L1761.45,1391.93L1761.45,1364.21L1729.79,1377.6L1729.79,1544.4L1761.45,1531.01L1761.45,1503.25L1817.97,1479.37L1817.97,1507.12Z" style="fill:white;stroke:rgb(218,97,1);stroke-width:2.98px;"/>
            </g>
            <g transform="matrix(0.701327,-0.600285,-0.600285,1.80856,565.287,697.435)">
                <path d="M851.584,1266.74L790.409,1239.94" style="fill:none;stroke:rgb(218,97,1);stroke-width:7.2px;"/>
            </g>
            <g transform="matrix(0.703747,-0.599225,-0.599225,1.80903,561.884,638.594)">
                <path d="M851.584,1266.74L790.409,1239.94" style="fill:none;stroke:rgb(218,97,1);stroke-width:7.19px;"/>
            </g>
            <g transform="matrix(1.42896,0,0,1.42896,-1444.13,157.789)">
                <path d="M1210.1,1617.64L1191.21,1609.37L1145.3,1628.78L1145.3,1870.59L1164.19,1878.85L1164.19,1637.05L1210.1,1617.64Z" style="fill:white;stroke:rgb(218,97,1);stroke-width:4.32px;"/>
            </g>
            <g transform="matrix(2.07154,-0.875601,0,2.07154,-1348.08,589.276)">
                <rect x="795.07" y="1290.63" width="56.514" height="78.653" style="fill:none;stroke:rgb(218,97,1);stroke-width:3.65px;"/>
            </g>
            <g transform="matrix(0.698719,-0.601428,-0.601428,1.80806,465.636,697.145)">
                <path d="M851.584,1266.74L790.409,1239.94" style="fill:none;stroke:rgb(218,97,1);stroke-width:7.22px;"/>
            </g>
            <g transform="matrix(1.42896,0,0,1.42896,-1444.08,157.779)">
                <path d="M1164.19,1878.85L1337.94,1805.42L1337.94,1563.61L1164.19,1637.05L1164.19,1878.85Z" style="fill:white;stroke:rgb(218,97,1);stroke-width:4.32px;"/>
            </g>
            <g transform="matrix(1.42896,0,0,1.42896,-1444.08,157.779)">
                <path d="M1164.19,1878.85L1337.94,1805.42L1337.94,1563.61L1164.19,1637.05L1164.19,1878.85Z" style="fill:white;stroke:rgb(218,97,1);stroke-width:4.32px;"/>
            </g>
            <g transform="matrix(1.42896,0,0,1.42896,-1430.26,163.334)">
                <path d="M1164.19,1878.85L1337.94,1805.42L1337.94,1563.61L1164.19,1637.05L1164.19,1878.85Z" style="fill:white;stroke:rgb(218,97,1);stroke-width:4.32px;"/>
            </g>
            <g transform="matrix(1.42896,0,0,1.42896,-1403.27,175.655)">
                <path d="M1145.3,1628.78L1135.64,1624.54L1309.38,1551.1L1319.05,1554.99L1145.3,1628.78Z" style="fill:white;stroke:rgb(218,97,1);stroke-width:4.32px;"/>
            </g>
            <g transform="matrix(0.701043,-0.60041,-0.60041,1.80851,645.176,618.581)">
                <path d="M851.584,1266.74L790.409,1239.94" style="fill:none;stroke:rgb(218,97,1);stroke-width:7.21px;"/>
            </g>
            <g transform="matrix(2.0457,0.269984,0.269984,1.54714,-2590.22,-343.93)">
                <path d="M1164.19,1637.05L1145.3,1628.78" style="fill:none;stroke:rgb(218,97,1);stroke-width:2.97px;"/>
            </g>
            <g transform="matrix(1.42896,0,0,1.42896,-1430.24,163.863)">
                <path d="M1292.03,1824.82L1273.14,1816.55L1273.14,1792.56L1292.03,1784.58L1292.03,1824.77" style="fill:white;stroke:rgb(218,97,1);stroke-width:4.32px;"/>
            </g>
            <g transform="matrix(1.42896,0,0,1.42896,-1403.27,175.655)">
                <path d="M1135.64,1624.54L1135.64,1866.34L1145.3,1870.59L1145.3,1628.78L1135.64,1624.54Z" style="fill:white;stroke:rgb(218,97,1);stroke-width:4.32px;"/>
            </g>
            <g transform="matrix(2.07154,-0.875601,0,2.07154,-1222.23,644.357)">
                <rect x="795.07" y="1290.63" width="56.514" height="78.653" style="fill:none;stroke:rgb(218,97,1);stroke-width:3.65px;"/>
            </g>
            <g transform="matrix(2.07154,-0.875601,0,2.07154,-1348.95,588.839)">
                <path d="M851.584,1290.63L795.07,1290.63L795.07,1369.28" style="fill:none;stroke:rgb(218,97,1);stroke-width:3.65px;"/>
            </g>
            <g transform="matrix(2.07154,0,0,2.07154,-1222.23,-51.8074)">
                <path d="M851.584,1266.74L790.409,1239.94" style="fill:none;stroke:rgb(218,97,1);stroke-width:2.98px;"/>
            </g>
            <g transform="matrix(0.698719,-0.601428,-0.601428,1.80806,591.492,752.226)">
                <path d="M851.584,1266.74L790.409,1239.94" style="fill:none;stroke:rgb(218,97,1);stroke-width:7.22px;"/>
            </g>
            <g transform="matrix(2.07154,0,0,2.07154,-1339.3,-1.11719)">
                <path d="M851.584,1266.74L790.409,1239.94" style="fill:none;stroke:rgb(218,97,1);stroke-width:2.98px;"/>
            </g>
            <g transform="matrix(2.07154,0,0,2.07154,-1339.3,160.609)">
                <path d="M851.584,1266.74L790.409,1239.94" style="fill:none;stroke:rgb(218,97,1);stroke-width:2.98px;"/>
            </g>
            <g transform="matrix(2.07154,0,0,2.07154,-2454.62,-295.54)">
                <path d="M1328.81,1460.14L1328.81,1382.07L1358.32,1394.99L1358.32,1473.54L1328.81,1460.14Z" style="fill:white;stroke:rgb(218,97,1);stroke-width:2.98px;"/>
            </g>
            <g transform="matrix(1.42896,0,0,1.42896,-1154.64,191.923)">
                <ellipse cx="1096.59" cy="1618.07" rx="8.713" ry="10.215" style="fill:white;stroke:rgb(218,97,1);stroke-width:4.32px;stroke-linejoin:miter;"/>
            </g>
            <g transform="matrix(1.42896,0,0,1.42896,-1331.18,207.205)">
                <path d="M1164.19,1878.85L1337.94,1805.42L1337.94,1563.61L1164.19,1637.05L1164.19,1878.85Z" style="fill:white;stroke:rgb(218,97,1);stroke-width:4.32px;"/>
            </g>
            <g transform="matrix(1.42896,0,0,1.42896,-1345.19,201.068)">
                <path d="M1164.19,1878.85L1337.94,1805.42L1337.94,1563.61L1164.19,1637.05L1164.19,1878.85Z" style="fill:white;stroke:rgb(218,97,1);stroke-width:4.32px;"/>
            </g>
            <g transform="matrix(1.42896,0,0,1.42896,-1331.38,206.623)">
                <path d="M1164.19,1878.85L1337.94,1805.42L1337.94,1563.61L1164.19,1637.05L1164.19,1878.85Z" style="fill:white;stroke:rgb(218,97,1);stroke-width:4.32px;"/>
            </g>
            <g transform="matrix(2.07154,0,0,2.07154,-3251.12,-307.356)">
                <path d="M1817.97,1507.12L1849.63,1493.74L1849.63,1326.94L1817.97,1340.32L1817.97,1368.05L1761.45,1391.93L1761.45,1364.21L1729.79,1377.6L1729.79,1544.4L1761.45,1531.01L1761.45,1503.25L1817.97,1479.37L1817.97,1507.12Z" style="fill:none;stroke:rgb(218,97,1);stroke-width:2.98px;"/>
            </g>
            <g transform="matrix(1.42896,0,0,1.42896,-1304.39,218.944)">
                <path d="M1319.05,1555.34L1273.14,1574.74L1273.14,1614.93L1210.1,1641.58L1210.1,1657.83L1292.03,1623.2L1292.03,1583.01L1337.94,1563.61L1319.05,1555.34Z" style="fill:white;stroke:rgb(218,97,1);stroke-width:4.32px;"/>
            </g>
            <g transform="matrix(2.07154,0,0,2.07154,-3224.13,-295.54)">
                <path d="M1817.97,1507.12L1849.63,1493.74L1849.63,1326.94L1817.97,1340.32L1817.97,1368.05L1761.45,1391.93L1761.45,1364.21L1729.79,1377.6L1729.79,1544.4L1761.45,1531.01L1761.45,1503.25L1817.97,1479.37L1817.97,1507.12Z" style="fill:white;stroke:rgb(218,97,1);stroke-width:2.98px;"/>
            </g>
            <g transform="matrix(1.42896,-0.504027,0,1.42896,-1304.39,839.994)">
                <path d="M1270.81,1715.82C1270.81,1709.83 1266.48,1704.96 1261.15,1704.96L1241.83,1704.96C1236.5,1704.96 1232.17,1709.83 1232.17,1715.82L1232.17,1740.27C1232.17,1746.26 1236.5,1751.13 1241.83,1751.13L1261.15,1751.13C1266.48,1751.13 1270.81,1746.26 1270.81,1740.27L1270.81,1715.82Z" style="fill:white;stroke:rgb(218,97,1);stroke-width:5.13px;stroke-linejoin:miter;"/>
            </g>
            <g transform="matrix(1.42896,-0.504027,0,1.42896,-1296.04,844.901)">
                <path d="M1270.81,1715.82C1270.81,1709.83 1266.48,1704.96 1261.15,1704.96L1241.83,1704.96C1236.5,1704.96 1232.17,1709.83 1232.17,1715.82L1232.17,1740.27C1232.17,1746.26 1236.5,1751.13 1241.83,1751.13L1261.15,1751.13C1266.48,1751.13 1270.81,1746.26 1270.81,1740.27L1270.81,1715.82Z" style="fill:white;stroke:rgb(218,97,1);stroke-width:5.13px;stroke-linejoin:miter;"/>
            </g>
            <g transform="matrix(0.980517,-0.477974,-0.477974,1.86215,305.364,726.688)">
                <path d="M851.584,1266.74L790.409,1239.94" style="fill:none;stroke:rgb(218,97,1);stroke-width:5.93px;"/>
            </g>
            <g transform="matrix(0.74577,-0.580815,-0.580815,1.81709,293.12,721.324)">
                <path d="M851.584,1266.74L790.409,1239.94" style="fill:none;stroke:rgb(218,97,1);stroke-width:7px;"/>
            </g>
            <g transform="matrix(0.955242,-0.489047,-0.489047,1.85729,325.915,780.836)">
                <path d="M851.584,1266.74L790.409,1239.94" style="fill:none;stroke:rgb(218,97,1);stroke-width:6.04px;"/>
            </g>
            <g transform="matrix(1.42896,0,0,1.42896,-1234.78,221.116)">
                <ellipse cx="1096.59" cy="1618.07" rx="8.713" ry="10.215" style="fill:white;stroke:rgb(218,97,1);stroke-width:4.32px;stroke-linejoin:miter;"/>
            </g>
            <g transform="matrix(0.988911,-0.474296,-0.474296,1.86376,-48.8655,616.647)">
                <path d="M851.584,1266.74L790.409,1239.94" style="fill:none;stroke:rgb(218,97,1);stroke-width:5.9px;"/>
            </g>
            <g transform="matrix(1.42896,0,0,1.42896,-1304.39,218.944)">
                <path d="M1145.3,1628.78L1135.64,1624.54L1309.38,1551.1L1319.05,1554.99L1145.3,1628.78Z" style="fill:white;stroke:rgb(218,97,1);stroke-width:4.32px;"/>
            </g>
            <g transform="matrix(2.07154,0,0,2.07154,-1173.59,-31.1413)">
                <circle cx="823.327" cy="1318.01" r="9.976" style="fill:none;stroke:rgb(218,97,1);stroke-width:2.98px;"/>
            </g>
            <g transform="matrix(2.07154,0,0,2.07154,-1552.8,-196.711)">
                <path d="M819.426,1327.19C815.856,1325.67 813.351,1322.13 813.351,1318.01C813.351,1312.5 817.821,1308.03 823.327,1308.03C825.008,1308.03 826.593,1308.45 827.984,1309.19" style="fill:none;stroke:rgb(218,97,1);stroke-width:2.98px;"/>
            </g>
            <g transform="matrix(2.07154,0,0,2.07154,-1222.23,-51.8074)">
                <circle cx="823.327" cy="1318.01" r="9.976" style="fill:none;stroke:rgb(218,97,1);stroke-width:2.98px;"/>
            </g>
            <g transform="matrix(2.07154,0,0,2.07154,-1211.18,-46.8999)">
                <circle cx="823.327" cy="1318.01" r="9.976" style="fill:none;stroke:rgb(218,97,1);stroke-width:2.98px;"/>
            </g>
            <g transform="matrix(0.701327,-0.600285,-0.600285,1.80856,705.032,758.59)">
                <path d="M851.584,1266.74L790.409,1239.94" style="fill:none;stroke:rgb(218,97,1);stroke-width:7.2px;"/>
            </g>
            <g transform="matrix(0.703747,-0.599225,-0.599225,1.80903,701.629,699.749)">
                <path d="M851.584,1266.74L790.409,1239.94" style="fill:none;stroke:rgb(218,97,1);stroke-width:7.19px;"/>
            </g>
            <g transform="matrix(0.701043,-0.60041,-0.60041,1.80851,771.032,673.662)">
                <path d="M851.584,1266.74L790.409,1239.94" style="fill:none;stroke:rgb(218,97,1);stroke-width:7.21px;"/>
            </g>
            <g transform="matrix(1.42896,0,0,1.42896,-1304.39,218.944)">
                <path d="M1210.1,1617.64L1191.21,1609.37L1145.3,1628.78L1145.3,1870.59L1164.19,1878.85L1164.19,1637.05L1210.1,1617.64Z" style="fill:white;stroke:rgb(218,97,1);stroke-width:4.32px;"/>
            </g>
            <g transform="matrix(1.42896,0,0,1.42896,-1304.39,218.944)">
                <path d="M1164.19,1637.05L1145.3,1628.78" style="fill:none;stroke:rgb(218,97,1);stroke-width:4.32px;"/>
            </g>
            <g transform="matrix(1.42896,0,0,1.42896,-1304.39,218.944)">
                <path d="M1292.03,1824.82L1273.14,1816.55L1273.14,1792.56L1292.03,1784.58L1292.03,1824.77" style="fill:white;stroke:rgb(218,97,1);stroke-width:4.32px;"/>
            </g>
            <g transform="matrix(1.42896,0,0,1.42896,-1304.39,218.944)">
                <path d="M1135.64,1624.54L1135.64,1866.34L1145.3,1870.59L1145.3,1628.78L1135.64,1624.54Z" style="fill:white;stroke:rgb(218,97,1);stroke-width:4.32px;"/>
            </g>
            <g transform="matrix(1.42896,0,0,1.42896,-1308.71,211.255)">
                <ellipse cx="1096.59" cy="1618.07" rx="8.713" ry="10.215" style="fill:white;stroke:rgb(218,97,1);stroke-width:4.32px;stroke-linejoin:miter;"/>
            </g>
            <g transform="matrix(1.42896,0,0,1.42896,-1277.79,198.982)">
                <ellipse cx="1096.59" cy="1618.07" rx="8.713" ry="10.215" style="fill:white;stroke:rgb(218,97,1);stroke-width:4.32px;stroke-linejoin:miter;"/>
            </g>
            <g transform="matrix(1.42896,0,0,1.42896,-1304.39,218.944)">
                <path d="M1249.85,1535.64C1249.85,1535.64 1227.68,1545.19 1223.63,1548.37C1219.58,1551.55 1219.82,1555.03 1220.45,1558.2C1221.03,1561.1 1225.95,1560.81 1229.71,1559.94C1233.47,1559.07 1249.85,1551.1 1249.85,1551.1L1249.85,1535.64Z" style="fill:white;stroke:rgb(218,97,1);stroke-width:4.32px;stroke-linejoin:miter;"/>
            </g>
            <g transform="matrix(1.42896,0,0,1.42896,-1072.95,191.29)">
                <ellipse cx="1096.59" cy="1618.07" rx="8.713" ry="10.215" style="fill:white;stroke:rgb(218,97,1);stroke-width:4.32px;stroke-linejoin:miter;"/>
            </g>
            <g transform="matrix(1.42896,0,0,1.42896,-1129.74,217.132)">
                <ellipse cx="1096.59" cy="1618.07" rx="8.713" ry="10.215" style="fill:white;stroke:rgb(218,97,1);stroke-width:4.32px;stroke-linejoin:miter;"/>
            </g>
        </g>
    </g>
</svg>
