<?xml version="1.0" encoding="UTF-8" standalone="no"?>
<!DOCTYPE svg PUBLIC "-//W3C//DTD SVG 1.1//EN" "http://www.w3.org/Graphics/SVG/1.1/DTD/svg11.dtd">
<svg width="100%" height="100%" viewBox="0 0 286 370" version="1.1" xmlns="http://www.w3.org/2000/svg" xmlns:xlink="http://www.w3.org/1999/xlink" xml:space="preserve" xmlns:serif="http://www.serif.com/" style="fill-rule:evenodd;clip-rule:evenodd;stroke-linecap:round;stroke-linejoin:round;stroke-miterlimit:1.5;">
    <g transform="matrix(1,0,0,1,-995,-2093)">
        <path d="M1226.85,2205.86L1122.67,2244.15L1131.28,2398.64L1227.8,2356.55L1226.85,2205.86Z" style="fill:white;"/>
        <g transform="matrix(1,0,0,1,143.506,-60.9672)">
            <g transform="matrix(1.42896,0,0,1.42896,-1608.27,269.481)">
                <path d="M1849.63,1423.67L1849.63,1326.94L1729.79,1377.6L1729.79,1544.4L1822.63,1505.15M1817.97,1384.4L1761.45,1408.29L1761.45,1486.94L1817.97,1463.05L1817.97,1384.4Z" style="fill:white;stroke:rgb(218,97,1);stroke-width:2.97px;"/>
            </g>
            <g transform="matrix(1.42896,0,0,1.42896,-990.05,307.778)">
                <path d="M1358.32,1394.99L1328.81,1381.48L1385.33,1357.6L1395.3,1361.97L1358.32,1377.6L1358.32,1394.99Z" style="fill:white;stroke:rgb(218,97,1);stroke-width:2.97px;"/>
            </g>
            <g transform="matrix(1.42896,-0.603992,0,1.42896,-139.94,956.121)">
                <rect x="795.07" y="1290.63" width="56.514" height="78.653" style="fill:none;stroke:rgb(218,97,1);stroke-width:3.64px;"/>
            </g>
            <g transform="matrix(1.42896,-0.603992,0,1.42896,-227.355,917.825)">
                <path d="M851.584,1290.63L795.07,1290.63L795.07,1369.28" style="fill:none;stroke:rgb(218,97,1);stroke-width:3.64px;"/>
            </g>
            <g transform="matrix(1.42896,0,0,1.42896,-139.94,475.906)">
                <path d="M851.584,1266.74L790.409,1239.94" style="fill:none;stroke:rgb(218,97,1);stroke-width:2.97px;"/>
            </g>
            <g transform="matrix(1.42896,0,0,1.42896,-220.695,510.872)">
                <path d="M851.584,1266.74L790.409,1239.94" style="fill:none;stroke:rgb(218,97,1);stroke-width:2.97px;"/>
            </g>
            <g transform="matrix(1.42896,0,0,1.42896,-220.695,622.431)">
                <path d="M851.584,1266.74L790.409,1239.94" style="fill:none;stroke:rgb(218,97,1);stroke-width:2.97px;"/>
            </g>
            <g transform="matrix(1.42896,0,0,1.42896,-139.94,475.906)">
                <circle cx="823.327" cy="1318.01" r="9.976" style="fill:none;stroke:rgb(218,97,1);stroke-width:2.97px;"/>
            </g>
            <g transform="matrix(1.42896,0,0,1.42896,-218.075,441.661)">
                <circle cx="823.327" cy="1318.01" r="9.976" style="fill:none;stroke:rgb(218,97,1);stroke-width:2.97px;stroke-dasharray:2.97,5.95,0,0;"/>
            </g>
            <g transform="matrix(1.42896,0,0,1.42896,-1520.86,307.778)">
                <path d="M1849.63,1326.94L1729.79,1377.6L1729.79,1544.4L1849.63,1493.74L1849.63,1326.94ZM1817.97,1384.4L1761.45,1408.29L1761.45,1486.94L1817.97,1463.05L1817.97,1384.4Z" style="fill:white;stroke:rgb(218,97,1);stroke-width:2.97px;"/>
            </g>
            <g transform="matrix(1.42896,0,0,1.42896,-990.05,307.778)">
                <path d="M1389.99,1408.29L1392.62,1391.3L1440.16,1371.21L1446.5,1384.4" style="fill:none;stroke:rgb(218,97,1);stroke-width:2.97px;"/>
            </g>
            <g transform="matrix(-1.42896,1.74997e-16,-1.74997e-16,-1.42896,3063.17,4411.63)">
                <path d="M1389.99,1408.29L1392.62,1391.3L1440.16,1371.21L1446.5,1384.4" style="fill:none;stroke:rgb(218,97,1);stroke-width:2.97px;"/>
            </g>
            <g transform="matrix(-0.731248,1.69544,-1.69544,-0.731248,4481.03,959.183)">
                <path d="M1389.99,1408.29L1389.36,1396.38L1435.65,1376.83L1446.5,1384.4" style="fill:none;stroke:rgb(218,97,1);stroke-width:2.3px;"/>
            </g>
            <g transform="matrix(0.709005,-1.70486,1.70486,0.709005,-2389.61,3803.83)">
                <path d="M1389.99,1408.29L1386.25,1397.68L1433.77,1377.61L1446.5,1384.4" style="fill:none;stroke:rgb(218,97,1);stroke-width:2.3px;"/>
            </g>
            <g transform="matrix(1.42896,0,0,1.42896,-990.05,307.778)">
                <path d="M1328.81,1460.14L1328.81,1382.07L1358.32,1394.99L1358.32,1473.54L1328.81,1460.14Z" style="fill:white;stroke:rgb(218,97,1);stroke-width:2.97px;"/>
            </g>
            <g transform="matrix(1.2427,-0.321068,-0.321068,0.875497,-299.002,1499.01)">
                <path d="M1328.81,1381.48L1389.99,1486.94" style="fill:none;stroke:rgb(218,97,1);stroke-width:5.59px;"/>
            </g>
            <g transform="matrix(0.994445,0.364162,0.364162,1.12375,-944.392,269.512)">
                <path d="M1328.81,1460.14L1389.99,1408.87" style="fill:none;stroke:rgb(218,97,1);stroke-width:2.98px;"/>
            </g>
            <g transform="matrix(0.354486,-0.0195394,-0.0195394,1.4286,465.215,334.242)">
                <path d="M1329.27,1382.27L1446.5,1384.4" style="fill:none;stroke:rgb(218,97,1);stroke-width:4.15px;"/>
            </g>
            <g transform="matrix(1.41661,-0.120819,-0.120819,0.247124,-808.916,2079.6)">
                <path d="M1385.33,1357.6L1390.45,1407.68" style="fill:none;stroke:rgb(218,97,1);stroke-width:4.62px;"/>
            </g>
        </g>
    </g>
</svg>
